<?xml version="1.0" encoding="utf-8"?>
<!-- Generator: Adobe Illustrator 16.0.0, SVG Export Plug-In . SVG Version: 6.00 Build 0)  -->
<!DOCTYPE svg PUBLIC "-//W3C//DTD SVG 1.1//EN" "http://www.w3.org/Graphics/SVG/1.1/DTD/svg11.dtd">
<svg version="1.1" xmlns="http://www.w3.org/2000/svg" xmlns:xlink="http://www.w3.org/1999/xlink" x="0px" y="0px"
	 width="334.483px" height="406.479px" viewBox="0 0 334.483 406.479" enable-background="new 0 0 334.483 406.479"
	 xml:space="preserve">
<g id="Background">
	<rect x="-1342.906" y="-316.968" fill="#F5F4F5" width="800" height="800"/>
</g>
<g id="Objects">
	<g>
		<g>
			<g>
				<g>
					
						<linearGradient id="SVGID_1_" gradientUnits="userSpaceOnUse" x1="-1068.0151" y1="-16212.8242" x2="-924.585" y2="-16212.8242" gradientTransform="matrix(1 0 0 -1 0 -16215.9375)">
						<stop  offset="0" style="stop-color:#913CA3"/>
						<stop  offset="1" style="stop-color:#57284C"/>
					</linearGradient>
					<path fill="url(#SVGID_1_)" d="M-945.798-19.173c33.402-17.015,21.982-47.682,2.429-54.951
						c-10.095-3.759-17.432-1.546-24.513,0.594c-16.24,6.57-32.259,14.456-46.968,23.381c-20.896,12.694-36.026,25.622-44.701,37.24
						c-3.103,4.156-5.378,8.154-6.787,11.914c-0.228,0.641-0.401,1.324-0.548,2.035c0-0.001,0.001-0.001,0-0.001
						c-0.003,0.016-0.006,0.034-0.009,0.05c0.004-0.016,0.006-0.033,0.009-0.049c-0.701,2.347-1.041,4.584-1.018,6.709
						c0.156-0.566,0.446-0.646,0.6-0.658l0.326,0.087c1.052,0.41,0.827,0.189-0.326-0.087c-0.349,0.131-0.505,0.369-0.601,0.697
						c0-0.013,0.001-0.026,0.001-0.039c-0.006,0.019-0.011,0.037-0.016,0.057c-0.015,0.055-0.041,0.119-0.051,0.18
						c-0.046,0.317-0.063,0.728-0.012,1.324l0.033,0.326l0.164,1.114l0.065,0.334l-0.01-0.066l0.658,3.258
						c3.287,12.664,3.477,13.427,6.485,20.933c6.169,13.596,6.297,13.848,14.1,25.692l1.122,1.552l5.948,7.478
						c-2.091-2.41-3.289-5.201-3.647-8.275c-0.363-3.152,0.166-6.624,1.556-10.333c1.383-3.654,3.595-7.536,6.606-11.577
						c8.438-11.291,23.141-23.855,43.462-36.192C-977.162-5.124-961.581-12.801-945.798-19.173z M-1057.006-15.437
						c0.079-0.055,0.163-0.072,0.242-0.125c-0.118,0.082-0.253,0.151-0.365,0.237C-1057.088-15.355-1057.047-15.409-1057.006-15.437
						z M-1064.143,24.519c2.142,7.242,4.738,12.91,6.148,15.743C-1060.355,35.572-1062.504,30.162-1064.143,24.519z
						 M-1053.186,31.096c2.603,6.024,5.157,12.677,7.288,19.384C-1047.996,43.886-1050.555,37.197-1053.186,31.096z
						 M-1044.154,54.495l-0.48,0.133c0.246-0.068,0.446-0.169,0.656-0.263C-1044.047,54.401-1044.081,54.461-1044.154,54.495z"/>
				</g>
				<g>
					<path fill="#2D2C2C" d="M-953.615,113.447c-1.187-0.099-2.248-0.222-3.315-0.344c0.452,0.058,0.854,0.11,1.342,0.173
						L-953.615,113.447z"/>
					<path fill="#2D2C2C" d="M-1031.912-102.505c-1.285,1.288-2.701,2.739-4.684,4.79
						C-1035.001-99.444-1033.455-101.01-1031.912-102.505z"/>
				</g>
			</g>
			
				<linearGradient id="SVGID_2_" gradientUnits="userSpaceOnUse" x1="-1067.7876" y1="-16215.418" x2="-817.7988" y2="-16215.418" gradientTransform="matrix(1 0 0 -1 0 -16215.9375)">
				<stop  offset="0" style="stop-color:#8B50DC"/>
				<stop  offset="0.3639" style="stop-color:#913CA3"/>
				<stop  offset="1" style="stop-color:#57284C"/>
			</linearGradient>
			<path fill="url(#SVGID_2_)" d="M-817.831-20.221l-0.621-6.873c-0.973-7.837-1.102-8.336-4.371-21.184
				c-1.086-3.526-2.827-8.148-4.085-11.615c-3.078-7.448-3.465-8.137-9.963-19.502l-1.188-1.86l0.756,1.741
				c4.784,12.097-6.072,30.042-30.241,48.818l-3.173,2.417c-0.91,0.678-1.835,1.356-2.779,2.035
				c-4.858,3.487-10.17,6.996-15.917,10.492c-53.847,32.703-125.577,51.518-160.208,42.023c-10.92-2.995-16.838-8.446-18.167-15.523
				l0.065,0.334c0.004,0.019,0.011,0.042,0.016,0.061l0.632,3.13c1.736,7.776,1.91,8.27,6.485,20.933
				c5.889,13.125,6.045,13.359,14.1,25.692l1.122,1.552c-1.471-1.986-3.942-6.417-6.777-12.166
				c-0.479-0.99-11.359-23.142-15.034-37.028c3.564,13.241,15.458,39.509,21.811,49.194l5.948,7.478
				c2.944,3.417,7.633,6.111,14.172,7.896c33.664,9.229,103.392-9.053,155.719-40.847c5.586-3.388,10.757-6.81,15.475-10.203
				C-829.782,9.334-817.07-7.731-817.831-20.221z"/>
			<g>
				
					<linearGradient id="SVGID_3_" gradientUnits="userSpaceOnUse" x1="-1060.4302" y1="-16255.0918" x2="-1056.1899" y2="-16255.0918" gradientTransform="matrix(1 0 0 -1 0 -16215.9375)">
					<stop  offset="0" style="stop-color:#CA5AFE;stop-opacity:0.3"/>
					<stop  offset="0.1432" style="stop-color:#D46AFA;stop-opacity:0.4956"/>
					<stop  offset="0.3058" style="stop-color:#DB74F7;stop-opacity:0.7177"/>
					<stop  offset="0.5124" style="stop-color:#DD77F6"/>
					<stop  offset="1" style="stop-color:#57284C;stop-opacity:0"/>
				</linearGradient>
				<path fill="url(#SVGID_3_)" d="M-1059.192,38.314c0.577,0.886,1.199,1.838,1.881,2.882l1.122,1.552
					c-1.01-1.364-2.493-3.882-4.24-7.188C-1059.987,36.548-1059.576,37.463-1059.192,38.314z"/>
				
					<linearGradient id="SVGID_4_" gradientUnits="userSpaceOnUse" x1="-1067.7876" y1="-16208.2812" x2="-828.6211" y2="-16208.2812" gradientTransform="matrix(1 0 0 -1 0 -16215.9375)">
					<stop  offset="0" style="stop-color:#CA5AFE;stop-opacity:0.3"/>
					<stop  offset="0.0787" style="stop-color:#D46AFA;stop-opacity:0.4956"/>
					<stop  offset="0.168" style="stop-color:#DB74F7;stop-opacity:0.7177"/>
					<stop  offset="0.2816" style="stop-color:#DD77F6"/>
					<stop  offset="0.8154" style="stop-color:#57284C;stop-opacity:0"/>
					<stop  offset="0.9333" style="stop-color:#602D57;stop-opacity:0.2163"/>
				</linearGradient>
				<path fill="url(#SVGID_4_)" d="M-880.352,17.275c5.586-3.387,10.757-6.81,15.475-10.203
					c24.271-17.442,36.984-34.507,36.224-46.997l-0.621-6.873c-0.973-7.837-1.102-8.336-4.371-21.183
					c-0.724-2.352-1.738-5.186-2.707-7.844c1.594,11.905-9.371,28.177-31.191,45.128l-3.173,2.417
					c-0.91,0.678-1.835,1.356-2.779,2.035c-4.858,3.487-10.17,6.996-15.917,10.492c-53.847,32.703-125.577,51.518-160.208,42.023
					c-10.92-2.995-16.838-8.446-18.167-15.523l0.065,0.334c0.004,0.019,0.011,0.042,0.016,0.061l0.632,3.13
					c1.723,7.717,1.909,8.268,6.382,20.648c1.654,3.136,3.196,5.835,4.502,7.826l1.153,1.449
					c-3.609-7.775-9.599-21.333-12.142-30.941c2.103,7.814,7.108,20.165,12.163,30.967l4.774,6.002
					c2.944,3.417,7.633,6.112,14.172,7.897C-1002.407,67.351-932.679,49.069-880.352,17.275z"/>
				<g>
					
						<linearGradient id="SVGID_5_" gradientUnits="userSpaceOnUse" x1="-1067.7876" y1="-16195.5664" x2="-836.2041" y2="-16195.5664" gradientTransform="matrix(1 0 0 -1 0 -16215.9375)">
						<stop  offset="0" style="stop-color:#FFFFFF;stop-opacity:0"/>
						<stop  offset="0.3311" style="stop-color:#FFFFFF"/>
						<stop  offset="0.4263" style="stop-color:#FFFFFF;stop-opacity:0.8577"/>
						<stop  offset="1" style="stop-color:#FFFFFF;stop-opacity:0"/>
					</linearGradient>
					<path fill="url(#SVGID_5_)" d="M-1067.707,11.144l0.632,3.13c0.297,1.333,0.549,2.449,0.785,3.453
						c0.297,0.569,0.625,1.126,0.998,1.666c-0.733-2.15-1.38-4.223-1.887-6.136c0.497,1.846,1.16,3.951,1.943,6.222
						c2.903,4.148,8.06,7.397,15.615,9.469c34.631,9.495,106.361-9.321,160.208-42.023c5.747-3.497,11.059-7.005,15.917-10.493
						c0.944-0.679,1.869-1.357,2.779-2.035l3.173-2.417c21.217-16.482,32.167-32.322,31.291-44.13
						c-0.796,11.471-11.638,26.186-31.291,41.454l-3.173,2.417c-0.91,0.678-1.835,1.356-2.779,2.035
						c-4.858,3.487-10.17,6.996-15.917,10.492c-53.847,32.703-125.577,51.518-160.208,42.023
						c-10.92-2.995-16.838-8.446-18.167-15.523l0.065,0.334C-1067.718,11.102-1067.711,11.125-1067.707,11.144z"/>
					
						<linearGradient id="SVGID_6_" gradientUnits="userSpaceOnUse" x1="-1064.1401" y1="-16247.5996" x2="-1058.9688" y2="-16247.5996" gradientTransform="matrix(1 0 0 -1 0 -16215.9375)">
						<stop  offset="0" style="stop-color:#CA5AFE;stop-opacity:0.3"/>
						<stop  offset="0.0787" style="stop-color:#D46AFA;stop-opacity:0.4956"/>
						<stop  offset="0.168" style="stop-color:#DB74F7;stop-opacity:0.7177"/>
						<stop  offset="0.2816" style="stop-color:#DD77F6"/>
						<stop  offset="0.8154" style="stop-color:#57284C;stop-opacity:0"/>
						<stop  offset="0.9333" style="stop-color:#602D57;stop-opacity:0.2163"/>
					</linearGradient>
					<path fill="url(#SVGID_6_)" d="M-1064.14,25.228c0.119,0.352,0.245,0.719,0.378,1.105c1.479,3.949,3.147,7.989,4.753,11.695
						c0.013,0.024,0.027,0.048,0.04,0.072C-1060.879,33.671-1062.659,29.259-1064.14,25.228z"/>
				</g>
			</g>
			<path fill="#2D2C2C" d="M-824.332,28.171c0.146-0.379,0.281-0.756,0.406-1.129C-824.058,27.403-824.193,27.782-824.332,28.171z"
				/>
			
				<linearGradient id="SVGID_7_" gradientUnits="userSpaceOnUse" x1="-1002.165" y1="-16286.9258" x2="-824.332" y2="-16286.9258" gradientTransform="matrix(1 0 0 -1 0 -16215.9375)">
				<stop  offset="0" style="stop-color:#37BFE7"/>
				<stop  offset="0.4901" style="stop-color:#4AA3E7"/>
				<stop  offset="1" style="stop-color:#214D72"/>
			</linearGradient>
			<path fill="url(#SVGID_7_)" d="M-865.994,67.801c-7.242,4.398-14.89,8.495-22.732,12.226
				c-26.996,12.83-56.329,21.35-79.638,23.366c-10.695,0.931-20.117,0.486-27.483-1.528l-2.316-0.713
				c-1.462-0.5-2.795-1.074-4.001-1.693l1.454,0.749l2.909,1.418c0.536,0.243,1.042,0.473,1.523,0.689
				c0.384,0.938,2.026,1.566,4.476,1.967c4.038,1.696,6.82,2.56,14.806,5.052c5.953,1.486,9.233,2.192,12.867,2.771
				c5.823,1.067,11.96,1.757,17.974,1.698c0.528-0.006,1.044-0.021,1.561-0.037c1.521,0.024,3,0.037,4.32,0.036
				c2.804-0.12,6.517-0.374,9.345-0.6c-0.022,0.003-0.032,0.004-0.056,0.007l0.104-0.011c0.021-0.001,0.049-0.003,0.07-0.005
				c0.032-0.004,0.044-0.007,0.075-0.011l0.248-0.024c0.074-0.008,0.16-0.03,0.235-0.038c0.645-0.08,1.116-0.156,1.432-0.229
				c12.232-1.531,26.894-5.926,40.539-12.411c4.298-2.052,8.496-4.296,12.477-6.711c2.842-1.734,5.445-3.469,7.806-5.201
				c7.529-5.858,9.544-7.797,15.374-13.625c7.192-7.671,10.492-12.494,15.049-19.17c5.171-8.454,5.968-10.196,10.362-19.848
				c0.981-2.258,1.995-5.257,2.884-7.753C-828.764,39.678-843.112,53.906-865.994,67.801z M-993.709,102.622
				c0.605,0.195,1.259,0.405,1.917,0.615C-992.456,103.025-993.036,102.839-993.709,102.622z M-972.126,103.937
				c0.414-0.089,0.81-0.163,1.151-0.217l0.86-0.122C-970.754,103.683-971.444,103.794-972.126,103.937z M-970.076,103.592
				l0.354-0.051l0.502-0.055C-969.489,103.518-969.775,103.552-970.076,103.592z M-893.47,82.572
				c0.934-0.563,2.12-1.181,3.232-1.756c-0.996,0.532-1.935,1.062-2.812,1.586c-0.273,0.14-0.542,0.278-0.807,0.413
				C-893.727,82.734-893.604,82.652-893.47,82.572z"/>
			
				<linearGradient id="SVGID_8_" gradientUnits="userSpaceOnUse" x1="-995.957" y1="-16306.832" x2="-868.1123" y2="-16306.832" gradientTransform="matrix(1 0 0 -1 0 -16215.9375)">
				<stop  offset="0" style="stop-color:#92D1EC"/>
				<stop  offset="0.1832" style="stop-color:#6FD1EC"/>
				<stop  offset="0.3008" style="stop-color:#6CCBE7;stop-opacity:0.8559"/>
				<stop  offset="0.4528" style="stop-color:#62BBD8;stop-opacity:0.6699"/>
				<stop  offset="0.6237" style="stop-color:#52A1BF;stop-opacity:0.4607"/>
				<stop  offset="0.8083" style="stop-color:#3D7C9D;stop-opacity:0.2347"/>
				<stop  offset="1" style="stop-color:#214D72;stop-opacity:0"/>
			</linearGradient>
			<path fill="url(#SVGID_8_)" d="M-872.462,73.883c1.633-1.742,3.058-3.332,4.35-4.834c-6.614,3.922-13.525,7.606-20.614,10.979
				c-26.996,12.83-56.329,21.35-79.638,23.366c-8.742,0.761-16.631,0.602-23.245-0.582c-0.118,0.023-0.234,0.042-0.351,0.066
				c0.116-0.025,0.226-0.046,0.338-0.068c-0.305-0.055-0.604-0.114-0.905-0.173c-0.331,0.018-0.66,0.032-0.989,0.048
				c0.552,0.178,1.134,0.364,1.724,0.553c-0.597-0.19-1.133-0.362-1.724-0.553c-0.822,0.036-1.637,0.067-2.44,0.086
				c0.666,0.689,2.127,1.181,4.153,1.512c4.038,1.696,6.82,2.56,14.806,5.052c5.953,1.486,9.233,2.192,12.867,2.771
				c1.27,0.233,2.556,0.443,3.851,0.637c0.056,0,0.115,0,0.17,0c2.804-0.119,6.516-0.373,9.345-0.599
				c-0.023,0.003-0.033,0.004-0.056,0.007l0.104-0.011c0.021-0.001,0.049-0.003,0.07-0.005c0.032-0.004,0.044-0.007,0.076-0.011
				l0.248-0.025c0.075-0.008,0.161-0.029,0.235-0.037c0.644-0.081,1.117-0.157,1.432-0.23c12.232-1.53,26.893-5.926,40.54-12.41
				c4.297-2.052,8.496-4.297,12.476-6.711c2.842-1.735,5.445-3.469,7.807-5.201C-880.306,81.65-878.292,79.711-872.462,73.883z
				 M-972.126,103.937c0.414-0.089,0.81-0.163,1.151-0.217l0.86-0.122C-970.754,103.683-971.444,103.794-972.126,103.937z
				 M-970.076,103.592l0.354-0.051l0.502-0.055C-969.489,103.518-969.775,103.552-970.076,103.592z M-893.049,82.402
				c-0.273,0.14-0.542,0.278-0.807,0.413c0.129-0.081,0.252-0.163,0.386-0.243c0.934-0.563,2.12-1.181,3.232-1.756
				C-891.233,81.348-892.172,81.877-893.049,82.402z"/>
			<g opacity="0.69">
				
					<linearGradient id="SVGID_9_" gradientUnits="userSpaceOnUse" x1="-893.8555" y1="-16300.0449" x2="-890.2373" y2="-16300.0449" gradientTransform="matrix(1 0 0 -1 0 -16215.9375)">
					<stop  offset="0" style="stop-color:#FFFFFF;stop-opacity:0"/>
					<stop  offset="0.2614" style="stop-color:#FFFFFF;stop-opacity:0.8577"/>
					<stop  offset="0.3048" style="stop-color:#FFFFFF"/>
					<stop  offset="1" style="stop-color:#FFFFFF;stop-opacity:0"/>
				</linearGradient>
				<path fill="url(#SVGID_9_)" d="M-893.47,84.866c-0.134,0.081-0.257,0.162-0.386,0.243c0.265-0.136,0.533-0.272,0.807-0.413
					c0.877-0.524,1.815-1.054,2.812-1.587C-891.35,83.685-892.536,84.302-893.47,84.866z"/>
				
					<linearGradient id="SVGID_10_" gradientUnits="userSpaceOnUse" x1="-995.957" y1="-16303.5352" x2="-868.1123" y2="-16303.5352" gradientTransform="matrix(1 0 0 -1 0 -16215.9375)">
					<stop  offset="0" style="stop-color:#FFFFFF;stop-opacity:0"/>
					<stop  offset="0.2614" style="stop-color:#FFFFFF;stop-opacity:0.8577"/>
					<stop  offset="0.3048" style="stop-color:#FFFFFF"/>
					<stop  offset="1" style="stop-color:#FFFFFF;stop-opacity:0"/>
				</linearGradient>
				<path fill="url(#SVGID_10_)" d="M-988.585,105.556c5.949,0.752,12.771,0.779,20.22,0.131
					c23.309-2.016,52.642-10.536,79.638-23.366c5.572-2.651,11.028-5.5,16.322-8.501c1.608-1.716,3.016-3.287,4.292-4.772
					c-6.614,3.922-13.525,7.606-20.614,10.979c-26.996,12.83-56.329,21.35-79.638,23.366c-8.742,0.761-16.631,0.602-23.245-0.582
					c-0.118,0.023-0.234,0.042-0.351,0.066c0.116-0.025,0.226-0.046,0.338-0.068c-0.305-0.055-0.604-0.114-0.905-0.173
					c-0.331,0.018-0.66,0.032-0.989,0.048c0.552,0.178,1.134,0.364,1.724,0.553c-0.597-0.19-1.133-0.362-1.724-0.553
					c-0.822,0.036-1.637,0.067-2.44,0.086c0.666,0.689,2.127,1.181,4.153,1.512C-990.681,104.753-989.653,105.161-988.585,105.556z
					 M-893.47,82.572c0.934-0.563,2.12-1.181,3.232-1.756c-0.996,0.532-1.935,1.062-2.812,1.586
					c-0.273,0.14-0.542,0.278-0.807,0.413C-893.727,82.734-893.604,82.652-893.47,82.572z M-969.722,103.542l0.502-0.055
					c-0.27,0.031-0.556,0.065-0.856,0.105L-969.722,103.542z M-970.976,103.72l0.86-0.122c-0.639,0.085-1.329,0.196-2.011,0.339
					C-971.712,103.848-971.317,103.774-970.976,103.72z"/>
				
					<linearGradient id="SVGID_11_" gradientUnits="userSpaceOnUse" x1="-972.1265" y1="-16321.998" x2="-970.1152" y2="-16321.998" gradientTransform="matrix(1 0 0 -1 0 -16215.9375)">
					<stop  offset="0" style="stop-color:#FFFFFF;stop-opacity:0"/>
					<stop  offset="0.2614" style="stop-color:#FFFFFF;stop-opacity:0.8577"/>
					<stop  offset="0.3048" style="stop-color:#FFFFFF"/>
					<stop  offset="1" style="stop-color:#FFFFFF;stop-opacity:0"/>
				</linearGradient>
				<path fill="url(#SVGID_11_)" d="M-972.126,106.231c0.682-0.144,1.373-0.254,2.011-0.339l-0.86,0.122
					C-971.317,106.068-971.712,106.142-972.126,106.231z"/>
				
					<linearGradient id="SVGID_12_" gradientUnits="userSpaceOnUse" x1="-970.0757" y1="-16321.7695" x2="-969.2192" y2="-16321.7695" gradientTransform="matrix(1 0 0 -1 0 -16215.9375)">
					<stop  offset="0" style="stop-color:#FFFFFF;stop-opacity:0"/>
					<stop  offset="0.2614" style="stop-color:#FFFFFF;stop-opacity:0.8577"/>
					<stop  offset="0.3048" style="stop-color:#FFFFFF"/>
					<stop  offset="1" style="stop-color:#FFFFFF;stop-opacity:0"/>
				</linearGradient>
				<path fill="url(#SVGID_12_)" d="M-970.076,105.886c0.3-0.04,0.587-0.075,0.856-0.105l-0.502,0.055L-970.076,105.886z"/>
			</g>
			
				<linearGradient id="SVGID_13_" gradientUnits="userSpaceOnUse" x1="-1063.0396" y1="-16131.7031" x2="-881.167" y2="-16131.7031" gradientTransform="matrix(1 0 0 -1 0 -16215.9375)">
				<stop  offset="0" style="stop-color:#EC5695"/>
				<stop  offset="0.5" style="stop-color:#F65275"/>
				<stop  offset="1" style="stop-color:#FF565E"/>
			</linearGradient>
			<path fill="url(#SVGID_13_)" d="M-881.29-115.75l-0.229-1.22l-0.255-0.885l-0.178-0.545l-0.075-0.19
				c-5.962-8.564-25.615-13.699-26.447-13.918c-15.245-3.912-28.725-2.243-29.438,0.929l0.044,0.094l0.094,0.279l0.128,0.466
				l0.118,0.632l0.066,0.811l-0.046,0.982l-0.188,1.147l-0.382,1.322l-0.63,1.474l-0.887,1.603l-1.159,1.736l-1.454,1.843
				l-1.735,1.908c-0.636,0.646-1.303,1.304-2.01,1.955c-0.713,0.653-1.458,1.315-2.25,1.973c-0.775,0.652-1.596,1.302-2.449,1.96
				c-0.278,0.25-0.514,0.511-0.754,0.776c0.042-0.048,0.041-0.134,0.084-0.182l0.67-0.595l-0.868,0.645l-0.871,0.648l-0.897,0.635
				l-0.891,0.617l-0.909,0.623l-0.91,0.605l-0.918,0.59l-0.92,0.583l-0.916,0.562l-0.321,0.2l-0.583,0.35l-0.891,0.528l-0.872,0.506
				l-0.851,0.482l-0.816,0.462l-0.803,0.442l-0.764,0.421l-0.74,0.386l-0.703,0.369l-0.671,0.347l-0.626,0.32l-0.584,0.297
				l-0.552,0.277l-0.509,0.241l-0.461,0.224l-0.4,0.199l-0.371,0.17l-0.308,0.155l-0.264,0.122l-0.199,0.095l-0.139,0.068
				l-0.094,0.045l-0.028,0.018c-12.737,5.944-26.413,9.965-37.601,11.163c-3.94,0.385-7.524,0.367-10.379,0.21
				c-1.765-0.159-3.398-0.427-4.862-0.824c-11.97-3.282-9.178-13.84,5.392-25.095c0.854-0.658,1.746-1.316,2.676-1.977l-0.188,0.128
				c0.007-0.005,0.014-0.01,0.021-0.015c-4.193,3-4.81,3.508-9.603,7.461c-2.362,2.001-3.993,3.528-6.063,5.604
				c0.032-0.031,0.064-0.059,0.096-0.09c-1.532,1.479-3.102,3.064-4.712,4.814c-2.29,2.584-5.229,6.127-7.4,8.816
				c-6.401,8.855-7.522,10.897-12.258,19.513c-1.751,3.604-3.854,8.53-5.413,12.219c-3.922,10.116,0.082,18.074,13.021,21.614
				c6.293,1.728,14.154,2.264,23.037,1.75c22.641-1.324,51.925-9.469,79.008-22.124l0.066-0.02l0.168-0.085l0.286-0.138l0.395-0.179
				l0.496-0.235l0.601-0.294l0.695-0.33l0.803-0.379l0.873-0.436l0.984-0.485l1.062-0.527l1.135-0.566l1.215-0.626l1.291-0.666
				l1.357-0.711l1.417-0.755l1.485-0.804l1.548-0.848l1.584-0.894l1.646-0.93l1.672-0.981l1.718-1.021l1.12-0.676l0.642-0.385
				l1.759-1.086l1.779-1.128l1.759-1.139l1.766-1.177l1.761-1.193l1.739-1.204l1.719-1.223l1.681-1.24l1.665-1.252
				c1.651-1.268,3.232-2.529,4.729-3.777c1.54-1.286,2.978-2.558,4.349-3.811c1.376-1.273,2.664-2.537,3.88-3.787
				c1.198-1.247,2.317-2.47,3.356-3.686c1.008-1.198,1.952-2.378,2.806-3.547c0.827-1.127,1.58-2.251,2.248-3.348
				c0.647-1.056,1.22-2.098,1.71-3.117c0.469-0.967,0.867-1.914,1.2-2.84l0.75-2.549l0.368-2.225l0.083-1.894L-881.29-115.75z
				 M-973.53-97.691l0.42-0.277c-0.209,0.162-0.417,0.318-0.63,0.516C-973.665-97.523-973.605-97.623-973.53-97.691z"/>
			
				<linearGradient id="SVGID_14_" gradientUnits="userSpaceOnUse" x1="-1057.6265" y1="-16118.4043" x2="-888.1025" y2="-16118.4043" gradientTransform="matrix(1 0 0 -1 0 -16215.9375)">
				<stop  offset="0" style="stop-color:#FBA9AD;stop-opacity:0"/>
				<stop  offset="0" style="stop-color:#FBA9AD"/>
				<stop  offset="0.7282" style="stop-color:#FBA9AD;stop-opacity:0"/>
			</linearGradient>
			<path fill="url(#SVGID_14_)" d="M-1025.54-60.464c22.641-1.324,51.925-9.469,79.008-22.124l0.066-0.02l0.168-0.085l0.286-0.138
				l0.395-0.178l0.496-0.235l0.601-0.294l0.695-0.33l0.803-0.379l0.873-0.436l0.984-0.486l1.062-0.526l1.135-0.567l1.215-0.625
				l1.291-0.666l1.357-0.711l1.417-0.754l1.485-0.804l1.548-0.848l1.584-0.894l1.646-0.93l1.672-0.98l1.718-1.021l1.12-0.676
				l0.642-0.385l1.759-1.086l1.779-1.128l1.759-1.139l1.766-1.177l1.761-1.193l1.739-1.204l1.719-1.223l1.681-1.24l1.665-1.251
				c1.651-1.269,3.232-2.529,4.729-3.778c1.54-1.286,2.978-2.558,4.349-3.811c1.376-1.273,2.664-2.537,3.88-3.787
				c1.198-1.247,2.317-2.47,3.356-3.686c0.792-0.941,1.529-1.869,2.229-2.792c-8.109-5.247-19.735-8.289-20.372-8.457
				c-15.245-3.912-28.725-2.243-29.438,0.929l0.044,0.094l0.094,0.279l0.128,0.466l0.118,0.632l0.066,0.811l-0.046,0.982
				l-0.188,1.147l-0.382,1.322l-0.63,1.474l-0.887,1.603l-1.159,1.736l-1.454,1.843l-1.735,1.908
				c-0.636,0.646-1.303,1.304-2.01,1.955c-0.713,0.653-1.458,1.315-2.25,1.973c-0.775,0.652-1.596,1.302-2.449,1.96
				c-0.278,0.25-0.514,0.511-0.754,0.776c0.042-0.048,0.041-0.134,0.084-0.182l0.67-0.595l-0.868,0.645l-0.871,0.648l-0.897,0.635
				l-0.891,0.617l-0.909,0.623l-0.91,0.605l-0.918,0.59l-0.92,0.583l-0.916,0.562l-0.321,0.2l-0.583,0.35l-0.891,0.528l-0.872,0.506
				l-0.851,0.482l-0.816,0.462l-0.803,0.442l-0.764,0.421l-0.74,0.386l-0.703,0.369l-0.671,0.347l-0.626,0.32l-0.584,0.297
				l-0.552,0.277l-0.509,0.241l-0.461,0.224l-0.4,0.199l-0.371,0.17l-0.308,0.155l-0.264,0.122l-0.199,0.095l-0.139,0.068
				l-0.094,0.045l-0.028,0.018c-12.737,5.944-26.413,9.965-37.601,11.163c-3.94,0.385-7.524,0.367-10.379,0.21
				c-1.765-0.159-3.398-0.427-4.862-0.824c-11.97-3.282-9.178-13.84,5.392-25.095c0.267-0.206,0.544-0.411,0.818-0.617
				c-0.013,0-0.027,0-0.041-0.001c-2.751,1.994-3.83,2.882-7.872,6.216c-2.362,2.001-3.993,3.528-6.063,5.604
				c0.032-0.031,0.064-0.059,0.096-0.09c-1.532,1.479-3.102,3.064-4.712,4.814c-2.29,2.584-5.229,6.127-7.4,8.816
				c-6.401,8.855-7.522,10.897-12.258,19.513c-0.461,0.949-0.947,1.991-1.44,3.076c2.277,1.724,5.282,3.132,9.049,4.163
				C-1042.284-60.486-1034.423-59.95-1025.54-60.464z M-973.53-97.691l0.42-0.277c-0.209,0.162-0.417,0.318-0.63,0.516
				C-973.665-97.523-973.605-97.623-973.53-97.691z"/>
			<g>
				
					<linearGradient id="SVGID_15_" gradientUnits="userSpaceOnUse" x1="-973.7397" y1="-16121.1543" x2="-973.1099" y2="-16121.1543" gradientTransform="matrix(1 0 0 -1 0 -16215.9375)">
					<stop  offset="0" style="stop-color:#FFFFFF"/>
					<stop  offset="1" style="stop-color:#FFFFFF;stop-opacity:0"/>
				</linearGradient>
				<path fill="url(#SVGID_15_)" d="M-973.74-94.523c0.213-0.198,0.421-0.354,0.63-0.516l-0.42,0.277
					C-973.605-94.694-973.665-94.594-973.74-94.523z"/>
				
					<linearGradient id="SVGID_16_" gradientUnits="userSpaceOnUse" x1="-1031.6284" y1="-16109.7344" x2="-937.4629" y2="-16109.7344" gradientTransform="matrix(1 0 0 -1 0 -16215.9375)">
					<stop  offset="0" style="stop-color:#FFFFFF"/>
					<stop  offset="1" style="stop-color:#FFFFFF;stop-opacity:0"/>
				</linearGradient>
				<path opacity="0.52" fill="url(#SVGID_16_)" d="M-1024.146-88.611c-4.363-1.196-6.756-3.363-7.341-6.174
					c-0.766,4.235,1.563,7.518,7.341,9.103c1.463,0.396,3.097,0.665,4.862,0.824c2.855,0.156,6.439,0.175,10.379-0.21
					c11.188-1.199,24.864-5.219,37.601-11.163l0.028-0.018l0.094-0.045l0.139-0.068l0.199-0.095l0.264-0.122l0.308-0.155l0.371-0.17
					l0.4-0.199l0.461-0.224l0.509-0.241l0.552-0.278l0.584-0.296l0.626-0.32l0.671-0.347l0.703-0.369l0.74-0.387l0.764-0.421
					l0.803-0.442l0.816-0.462l0.851-0.482l0.872-0.506l0.891-0.528l0.583-0.351l0.321-0.2l0.916-0.562l0.92-0.583l0.918-0.59
					l0.91-0.605l0.909-0.623l0.891-0.617l0.897-0.635l0.871-0.647l0.868-0.646c0.853-0.658,1.673-1.308,2.449-1.96
					c0.792-0.659,1.537-1.32,2.25-1.973c0.707-0.651,1.374-1.308,2.01-1.955l1.735-1.908l1.454-1.843l1.159-1.736l0.887-1.603
					l0.63-1.474l0.382-1.322l0.188-1.147l0.046-0.982l-0.066-0.811l-0.088-0.47l-0.079,0.482l-0.382,1.322l-0.63,1.474l-0.887,1.603
					l-1.159,1.736l-1.454,1.843l-1.735,1.908c-0.636,0.646-1.303,1.304-2.01,1.955c-0.713,0.653-1.458,1.315-2.25,1.973
					c-0.775,0.652-1.596,1.302-2.449,1.96c-0.278,0.25-0.514,0.511-0.754,0.776c0.042-0.048,0.041-0.134,0.084-0.182l0.67-0.595
					l-0.868,0.645l-0.871,0.648l-0.897,0.635l-0.891,0.617l-0.909,0.623l-0.91,0.605l-0.918,0.59l-0.92,0.583l-0.916,0.562
					l-0.321,0.2l-0.583,0.35l-0.891,0.528l-0.872,0.506l-0.851,0.482l-0.816,0.462l-0.803,0.442l-0.764,0.421l-0.74,0.386
					l-0.703,0.369l-0.671,0.347l-0.626,0.32l-0.584,0.297l-0.552,0.277l-0.509,0.241l-0.461,0.224l-0.4,0.199l-0.371,0.17
					l-0.308,0.155l-0.264,0.122l-0.199,0.095l-0.139,0.068l-0.094,0.045l-0.028,0.018c-12.737,5.944-26.413,9.965-37.601,11.163
					c-3.94,0.385-7.524,0.367-10.379,0.21C-1021.049-87.946-1022.683-88.215-1024.146-88.611z M-973.53-97.691l0.42-0.277
					c-0.209,0.162-0.417,0.318-0.63,0.516C-973.665-97.523-973.605-97.623-973.53-97.691z"/>
				
					<linearGradient id="SVGID_17_" gradientUnits="userSpaceOnUse" x1="-951.4053" y1="-16107.8574" x2="-950.6514" y2="-16107.8574" gradientTransform="matrix(1 0 0 -1 0 -16215.9375)">
					<stop  offset="0" style="stop-color:#FFFFFF"/>
					<stop  offset="1" style="stop-color:#FFFFFF;stop-opacity:0"/>
				</linearGradient>
				<path fill="url(#SVGID_17_)" d="M-951.405-107.69c0.24-0.265,0.476-0.526,0.754-0.777l-0.67,0.595
					C-951.365-107.824-951.363-107.738-951.405-107.69z"/>
			</g>
		</g>
		<g>
			<text transform="matrix(1 0 0 1 -1074.73 193.8892)" fill="#383838" font-family="'Bodonitown'" font-size="54.083">HARMONY</text>
			
				<text transform="matrix(1 0 0 1 -1068.0659 213.5063)" fill="#383838" font-family="'Roboto-Light'" font-size="14.7213" letter-spacing="4">LEADER TRADING GROUP</text>
		</g>
	</g>
	
		<radialGradient id="SVGID_18_" cx="-971.9629" cy="501.8423" r="74.249" gradientTransform="matrix(2.7777 0 0 0.4106 1756.9153 64.3063)" gradientUnits="userSpaceOnUse">
		<stop  offset="0" style="stop-color:#B5B5B5"/>
		<stop  offset="1" style="stop-color:#FFFFFF;stop-opacity:0"/>
	</radialGradient>
	<ellipse fill="url(#SVGID_18_)" cx="-942.906" cy="270.364" rx="206.24" ry="30.486"/>
	<g>
		<g>
			<path fill="#232323" d="M-1039.668,468.539v-0.223c-0.303,0.346-0.6,0.628-0.895,0.844c-0.293,0.218-0.612,0.383-0.956,0.495
				c-0.343,0.113-0.718,0.17-1.125,0.17c-0.539,0-1.038-0.114-1.497-0.342c-0.458-0.229-0.855-0.556-1.191-0.978
				c-0.335-0.424-0.59-0.919-0.763-1.491s-0.259-1.19-0.259-1.854c0-1.406,0.344-2.504,1.031-3.289
				c0.686-0.785,1.59-1.179,2.711-1.179c0.647,0,1.195,0.112,1.64,0.333c0.445,0.224,0.878,0.565,1.302,1.026v-3.321
				c0-0.461,0.092-0.811,0.276-1.046c0.183-0.237,0.446-0.354,0.786-0.354c0.341,0,0.604,0.108,0.788,0.325
				c0.184,0.218,0.276,0.536,0.276,0.96v9.924c0,0.428-0.099,0.75-0.297,0.964c-0.197,0.213-0.453,0.322-0.767,0.322
				c-0.307,0-0.561-0.112-0.763-0.334C-1039.568,469.266-1039.668,468.95-1039.668,468.539z M-1044.095,465.233
				c0,0.61,0.095,1.13,0.284,1.559c0.189,0.428,0.449,0.751,0.78,0.967c0.329,0.219,0.689,0.327,1.079,0.327
				c0.395,0,0.756-0.104,1.084-0.31c0.327-0.206,0.587-0.522,0.782-0.947c0.196-0.427,0.293-0.959,0.293-1.596
				c0-0.6-0.098-1.113-0.293-1.547c-0.195-0.43-0.458-0.759-0.791-0.989c-0.333-0.227-0.697-0.34-1.092-0.34
				c-0.412,0-0.78,0.116-1.104,0.35c-0.324,0.233-0.575,0.568-0.753,1.005C-1044.005,464.15-1044.095,464.657-1044.095,465.233z"/>
			<path fill="#232323" d="M-1029.747,465.802h-4.4c0.006,0.51,0.107,0.961,0.309,1.352c0.2,0.391,0.467,0.685,0.799,0.882
				c0.333,0.198,0.699,0.295,1.101,0.295c0.269,0,0.515-0.03,0.737-0.092c0.223-0.065,0.438-0.163,0.647-0.298
				c0.208-0.134,0.401-0.279,0.577-0.433c0.176-0.155,0.403-0.363,0.685-0.628c0.115-0.099,0.28-0.147,0.495-0.147
				c0.23,0,0.417,0.064,0.56,0.189c0.142,0.127,0.215,0.306,0.215,0.536c0,0.203-0.081,0.44-0.239,0.713
				c-0.161,0.271-0.401,0.532-0.722,0.783c-0.322,0.249-0.725,0.456-1.212,0.622c-0.486,0.164-1.045,0.248-1.677,0.248
				c-1.445,0-2.568-0.414-3.37-1.238c-0.803-0.823-1.203-1.941-1.203-3.354c0-0.664,0.098-1.282,0.296-1.85
				c0.198-0.569,0.486-1.057,0.864-1.464c0.38-0.406,0.847-0.717,1.402-0.936c0.555-0.217,1.171-0.324,1.847-0.324
				c0.878,0,1.633,0.184,2.262,0.557c0.629,0.369,1.102,0.849,1.413,1.437c0.313,0.589,0.471,1.188,0.471,1.797
				c0,0.566-0.162,0.933-0.486,1.102C-1028.701,465.718-1029.159,465.802-1029.747,465.802z M-1034.147,464.525h4.08
				c-0.054-0.77-0.263-1.347-0.623-1.728c-0.36-0.382-0.833-0.573-1.421-0.573c-0.561,0-1.021,0.193-1.381,0.582
				C-1033.852,463.192-1034.07,463.766-1034.147,464.525z"/>
			<path fill="#232323" d="M-1019.495,466.88c0,0.622-0.15,1.154-0.453,1.597c-0.302,0.441-0.749,0.777-1.34,1.006
				c-0.59,0.228-1.309,0.342-2.155,0.342c-0.808,0-1.5-0.125-2.077-0.372s-1.002-0.558-1.277-0.926
				c-0.274-0.372-0.412-0.744-0.412-1.118c0-0.247,0.086-0.459,0.264-0.635c0.175-0.175,0.398-0.263,0.667-0.263
				c0.236,0,0.417,0.057,0.543,0.173c0.127,0.115,0.248,0.278,0.363,0.486c0.23,0.401,0.507,0.699,0.829,0.898
				c0.321,0.197,0.759,0.296,1.315,0.296c0.45,0,0.819-0.101,1.108-0.3c0.288-0.203,0.432-0.431,0.432-0.689
				c0-0.396-0.149-0.684-0.449-0.864c-0.3-0.182-0.793-0.355-1.479-0.521c-0.774-0.191-1.405-0.394-1.892-0.605
				c-0.486-0.21-0.875-0.49-1.166-0.836c-0.292-0.347-0.438-0.772-0.438-1.277c0-0.451,0.134-0.876,0.403-1.278
				c0.27-0.4,0.667-0.72,1.193-0.959c0.523-0.241,1.156-0.36,1.899-0.36c0.582,0,1.106,0.061,1.569,0.183
				c0.464,0.12,0.853,0.283,1.163,0.487c0.31,0.202,0.547,0.428,0.708,0.674c0.162,0.248,0.242,0.489,0.242,0.727
				c0,0.258-0.086,0.47-0.258,0.635c-0.173,0.164-0.418,0.247-0.738,0.247c-0.23,0-0.427-0.066-0.589-0.198
				c-0.162-0.132-0.347-0.329-0.557-0.594c-0.169-0.219-0.37-0.396-0.601-0.527c-0.231-0.132-0.544-0.197-0.94-0.197
				c-0.407,0-0.744,0.086-1.014,0.26c-0.27,0.172-0.404,0.388-0.404,0.646c0,0.236,0.099,0.431,0.296,0.581
				c0.198,0.151,0.464,0.277,0.801,0.375c0.334,0.098,0.796,0.219,1.385,0.361c0.697,0.172,1.267,0.376,1.709,0.611
				c0.442,0.234,0.778,0.515,1.007,0.837C-1019.608,466.103-1019.495,466.468-1019.495,466.88z"/>
			<path fill="#232323" d="M-1017.195,459.629c-0.313,0-0.581-0.098-0.804-0.289c-0.223-0.191-0.334-0.463-0.334-0.815
				c0-0.319,0.115-0.582,0.342-0.788c0.229-0.207,0.494-0.309,0.796-0.309c0.291,0,0.55,0.093,0.774,0.279
				c0.226,0.188,0.338,0.459,0.338,0.817c0,0.346-0.11,0.616-0.331,0.812C-1016.632,459.531-1016.893,459.629-1017.195,459.629z
				 M-1016.083,461.954v6.502c0,0.45-0.107,0.792-0.321,1.022s-0.485,0.347-0.816,0.347s-0.598-0.118-0.803-0.354
				c-0.207-0.237-0.31-0.575-0.31-1.015v-6.438c0-0.444,0.103-0.779,0.31-1.006c0.205-0.224,0.473-0.338,0.803-0.338
				s0.602,0.114,0.816,0.338C-1016.19,461.239-1016.083,461.551-1016.083,461.954z"/>
			<path fill="#232323" d="M-1006.226,462.324v6.536c0,0.747-0.081,1.39-0.241,1.929c-0.158,0.538-0.414,0.983-0.766,1.335
				c-0.351,0.352-0.812,0.613-1.379,0.782c-0.569,0.171-1.276,0.256-2.123,0.256c-0.774,0-1.467-0.108-2.077-0.326
				c-0.609-0.217-1.079-0.497-1.409-0.84c-0.33-0.344-0.495-0.697-0.495-1.06c0-0.274,0.094-0.499,0.28-0.671
				c0.187-0.173,0.413-0.26,0.676-0.26c0.329,0,0.618,0.146,0.865,0.437c0.12,0.148,0.245,0.299,0.375,0.45
				c0.13,0.15,0.273,0.279,0.429,0.387c0.157,0.106,0.345,0.186,0.564,0.239c0.22,0.051,0.474,0.077,0.758,0.077
				c0.583,0,1.035-0.08,1.356-0.242c0.322-0.163,0.547-0.39,0.676-0.681c0.129-0.29,0.205-0.603,0.227-0.935
				c0.022-0.334,0.038-0.868,0.049-1.604c-0.348,0.485-0.746,0.854-1.2,1.106c-0.453,0.252-0.994,0.378-1.619,0.378
				c-0.753,0-1.411-0.191-1.975-0.576c-0.563-0.385-0.997-0.924-1.298-1.616s-0.453-1.491-0.453-2.397
				c0-0.677,0.091-1.287,0.275-1.83c0.185-0.545,0.447-1.004,0.788-1.377c0.34-0.374,0.733-0.655,1.178-0.846
				c0.446-0.188,0.934-0.283,1.468-0.283c0.637,0,1.19,0.122,1.657,0.365c0.467,0.247,0.901,0.63,1.302,1.152v-0.307
				c0-0.39,0.095-0.692,0.288-0.906c0.192-0.214,0.44-0.322,0.743-0.322c0.434,0,0.722,0.144,0.864,0.425
				C-1006.298,461.382-1006.226,461.791-1006.226,462.324z M-1012.746,465.176c0,0.911,0.199,1.602,0.597,2.068
				c0.398,0.468,0.915,0.7,1.546,0.7c0.374,0,0.726-0.101,1.058-0.3c0.333-0.202,0.604-0.504,0.813-0.907
				c0.208-0.404,0.312-0.895,0.312-1.471c0-0.917-0.202-1.633-0.605-2.143c-0.405-0.512-0.936-0.768-1.596-0.768
				c-0.643,0-1.158,0.244-1.545,0.733C-1012.553,463.579-1012.746,464.275-1012.746,465.176z"/>
			<path fill="#232323" d="M-1002.649,461.919v0.272c0.395-0.521,0.827-0.904,1.297-1.149s1.009-0.368,1.619-0.368
				c0.593,0,1.124,0.131,1.591,0.389c0.466,0.259,0.816,0.624,1.046,1.096c0.149,0.274,0.245,0.572,0.288,0.89
				c0.044,0.32,0.068,0.726,0.068,1.22v4.188c0,0.45-0.104,0.792-0.31,1.022c-0.206,0.23-0.474,0.347-0.803,0.347
				c-0.336,0-0.607-0.118-0.816-0.354c-0.209-0.237-0.312-0.575-0.312-1.015v-3.75c0-0.742-0.104-1.31-0.31-1.702
				c-0.206-0.393-0.616-0.589-1.232-0.589c-0.4,0-0.766,0.118-1.096,0.357c-0.33,0.24-0.572,0.569-0.725,0.986
				c-0.109,0.336-0.166,0.961-0.166,1.878v2.819c0,0.456-0.106,0.799-0.317,1.027c-0.211,0.228-0.484,0.342-0.819,0.342
				c-0.325,0-0.591-0.118-0.8-0.354c-0.208-0.237-0.313-0.575-0.313-1.015v-6.502c0-0.43,0.093-0.75,0.28-0.961
				c0.187-0.212,0.442-0.318,0.766-0.318c0.198,0,0.377,0.048,0.537,0.142c0.158,0.094,0.287,0.233,0.383,0.42
				C-1002.698,461.422-1002.649,461.651-1002.649,461.919z"/>
			<path fill="#232323" d="M-988.962,465.802h-4.4c0.005,0.51,0.107,0.961,0.309,1.352c0.201,0.391,0.467,0.685,0.8,0.882
				c0.332,0.198,0.698,0.295,1.1,0.295c0.27,0,0.515-0.03,0.738-0.092c0.221-0.065,0.437-0.163,0.646-0.298
				c0.208-0.134,0.4-0.279,0.578-0.433c0.175-0.155,0.403-0.363,0.683-0.628c0.115-0.099,0.28-0.147,0.495-0.147
				c0.23,0,0.417,0.064,0.56,0.189c0.143,0.127,0.214,0.306,0.214,0.536c0,0.203-0.08,0.44-0.239,0.713
				c-0.161,0.271-0.4,0.532-0.722,0.783c-0.322,0.249-0.725,0.456-1.211,0.622c-0.487,0.164-1.046,0.248-1.677,0.248
				c-1.446,0-2.569-0.414-3.372-1.238c-0.801-0.823-1.203-1.941-1.203-3.354c0-0.664,0.098-1.282,0.296-1.85
				c0.198-0.569,0.486-1.057,0.866-1.464c0.378-0.406,0.846-0.717,1.4-0.936c0.555-0.217,1.171-0.324,1.848-0.324
				c0.878,0,1.632,0.184,2.261,0.557c0.629,0.369,1.101,0.849,1.414,1.437c0.313,0.589,0.471,1.188,0.471,1.797
				c0,0.566-0.163,0.933-0.487,1.102C-987.916,465.718-988.373,465.802-988.962,465.802z M-993.362,464.525h4.08
				c-0.055-0.77-0.263-1.347-0.622-1.728c-0.361-0.382-0.834-0.573-1.422-0.573c-0.561,0-1.022,0.193-1.381,0.582
				C-993.068,463.192-993.286,463.766-993.362,464.525z"/>
			<path fill="#232323" d="M-979.79,468.539v-0.223c-0.302,0.346-0.6,0.628-0.894,0.844c-0.294,0.218-0.613,0.383-0.956,0.495
				c-0.343,0.113-0.717,0.17-1.124,0.17c-0.539,0-1.038-0.114-1.497-0.342c-0.459-0.229-0.856-0.556-1.191-0.978
				c-0.335-0.424-0.589-0.919-0.762-1.491c-0.174-0.572-0.26-1.19-0.26-1.854c0-1.406,0.343-2.504,1.03-3.289
				c0.687-0.785,1.591-1.179,2.712-1.179c0.649,0,1.195,0.112,1.641,0.333c0.445,0.224,0.879,0.565,1.301,1.026v-3.321
				c0-0.461,0.092-0.811,0.276-1.046c0.184-0.237,0.447-0.354,0.788-0.354c0.34,0,0.602,0.108,0.786,0.325
				c0.184,0.218,0.277,0.536,0.277,0.96v9.924c0,0.428-0.099,0.75-0.297,0.964c-0.198,0.213-0.453,0.322-0.766,0.322
				c-0.309,0-0.562-0.112-0.763-0.334C-979.689,469.266-979.79,468.95-979.79,468.539z M-984.215,465.233
				c0,0.61,0.094,1.13,0.284,1.559c0.189,0.428,0.449,0.751,0.78,0.967c0.33,0.219,0.689,0.327,1.079,0.327
				c0.396,0,0.758-0.104,1.083-0.31c0.328-0.206,0.589-0.522,0.783-0.947c0.196-0.427,0.292-0.959,0.292-1.596
				c0-0.6-0.097-1.113-0.292-1.547c-0.194-0.43-0.458-0.759-0.791-0.989c-0.334-0.227-0.697-0.34-1.093-0.34
				c-0.411,0-0.78,0.116-1.104,0.35s-0.576,0.568-0.754,1.005C-984.126,464.15-984.215,464.657-984.215,465.233z"/>
			<path fill="#232323" d="M-970.593,458.615v3.437c0.424-0.438,0.854-0.776,1.295-1.009c0.439-0.234,0.983-0.351,1.632-0.351
				c0.747,0,1.401,0.177,1.966,0.531c0.562,0.355,0.998,0.869,1.31,1.541c0.311,0.673,0.466,1.473,0.466,2.396
				c0,0.682-0.088,1.306-0.26,1.875c-0.174,0.567-0.425,1.061-0.754,1.479s-0.729,0.741-1.199,0.97
				c-0.47,0.228-0.988,0.342-1.554,0.342c-0.346,0-0.672-0.042-0.977-0.125c-0.305-0.082-0.565-0.188-0.78-0.325
				c-0.213-0.134-0.396-0.272-0.547-0.417c-0.151-0.141-0.351-0.357-0.598-0.642v0.223c0,0.423-0.102,0.743-0.305,0.96
				c-0.202,0.217-0.461,0.326-0.774,0.326c-0.318,0-0.573-0.109-0.762-0.326c-0.19-0.217-0.284-0.537-0.284-0.96v-9.826
				c0-0.455,0.092-0.801,0.275-1.033c0.185-0.233,0.442-0.35,0.771-0.35c0.347,0,0.613,0.11,0.8,0.333
				S-970.593,458.202-970.593,458.615z M-970.486,465.299c0,0.896,0.205,1.583,0.615,2.063c0.408,0.481,0.945,0.723,1.611,0.723
				c0.565,0,1.053-0.245,1.463-0.737c0.409-0.493,0.614-1.197,0.614-2.115c0-0.594-0.085-1.105-0.256-1.532
				c-0.17-0.429-0.412-0.761-0.725-0.994c-0.314-0.233-0.679-0.35-1.097-0.35c-0.428,0-0.811,0.116-1.146,0.35
				c-0.335,0.233-0.6,0.571-0.792,1.015C-970.39,464.162-970.486,464.689-970.486,465.299z"/>
			<path fill="#232323" d="M-961.007,470.105l0.205-0.505l-2.769-6.973c-0.17-0.399-0.256-0.691-0.256-0.872
				c0-0.193,0.051-0.371,0.149-0.536c0.099-0.165,0.235-0.296,0.408-0.395c0.174-0.101,0.354-0.15,0.54-0.15
				c0.324,0,0.569,0.104,0.734,0.31c0.166,0.206,0.311,0.501,0.438,0.887l1.903,5.538l1.805-5.152
				c0.143-0.415,0.272-0.743,0.388-0.979c0.115-0.237,0.237-0.396,0.366-0.478c0.129-0.082,0.312-0.125,0.548-0.125
				c0.171,0,0.334,0.045,0.49,0.138c0.156,0.091,0.277,0.212,0.363,0.366c0.084,0.154,0.127,0.315,0.127,0.485
				c-0.022,0.104-0.057,0.253-0.107,0.446c-0.05,0.191-0.11,0.388-0.181,0.584l-2.934,7.683c-0.253,0.676-0.5,1.205-0.742,1.59
				c-0.242,0.385-0.561,0.682-0.96,0.886c-0.399,0.207-0.936,0.31-1.611,0.31c-0.66,0-1.154-0.07-1.483-0.214
				c-0.33-0.145-0.495-0.405-0.495-0.783c0-0.258,0.078-0.457,0.235-0.598c0.156-0.14,0.388-0.212,0.695-0.212
				c0.121,0,0.24,0.019,0.355,0.052c0.143,0.032,0.266,0.05,0.37,0.05c0.258,0,0.461-0.038,0.61-0.117
				c0.149-0.076,0.282-0.208,0.4-0.4C-961.298,470.751-961.161,470.471-961.007,470.105z"/>
		</g>
		<g>
			<path fill="#232323" d="M-928.412,460.871h0.537v-0.677c0-0.706,0.085-1.265,0.265-1.681c0.178-0.416,0.483-0.717,0.908-0.906
				c0.428-0.189,1.011-0.284,1.751-0.284c1.318,0,1.972,0.319,1.972,0.968c0,0.207-0.068,0.385-0.207,0.534
				c-0.134,0.146-0.299,0.222-0.484,0.222c-0.087,0-0.243-0.017-0.458-0.053c-0.207-0.028-0.394-0.047-0.541-0.047
				c-0.405,0-0.666,0.122-0.784,0.36c-0.112,0.237-0.17,0.579-0.17,1.027v0.536h0.549c0.859,0,1.285,0.257,1.285,0.776
				c0,0.364-0.11,0.6-0.341,0.698c-0.227,0.1-0.542,0.147-0.944,0.147h-0.549v5.963c0,0.443-0.104,0.782-0.321,1.015
				c-0.209,0.236-0.48,0.353-0.817,0.353c-0.318,0-0.583-0.116-0.797-0.353c-0.212-0.232-0.315-0.571-0.315-1.015v-5.963h-0.62
				c-0.337,0-0.593-0.071-0.776-0.226c-0.181-0.149-0.272-0.348-0.272-0.589C-929.544,461.137-929.166,460.871-928.412,460.871"/>
			<path fill="#232323" d="M-921.046,466.575v1.881c0,0.455-0.115,0.798-0.324,1.024c-0.213,0.23-0.484,0.343-0.813,0.343
				c-0.332,0-0.597-0.114-0.805-0.348c-0.205-0.229-0.312-0.569-0.312-1.02v-6.267c0-1.012,0.364-1.518,1.093-1.518
				c0.376,0,0.646,0.117,0.81,0.354c0.167,0.237,0.257,0.584,0.276,1.049c0.267-0.465,0.541-0.812,0.822-1.049
				c0.29-0.236,0.663-0.354,1.138-0.354c0.476,0,0.931,0.117,1.376,0.354c0.445,0.237,0.668,0.552,0.668,0.942
				c0,0.272-0.095,0.503-0.281,0.678c-0.191,0.181-0.396,0.27-0.614,0.27c-0.086,0-0.286-0.055-0.602-0.156
				c-0.316-0.099-0.597-0.149-0.835-0.149c-0.329,0-0.601,0.088-0.809,0.258c-0.21,0.178-0.373,0.433-0.488,0.77
				c-0.113,0.343-0.191,0.752-0.237,1.219C-921.025,465.326-921.046,465.9-921.046,466.575"/>
			<path fill="#232323" d="M-910.7,465.8h-4.403c0.008,0.511,0.106,0.963,0.308,1.353c0.204,0.387,0.468,0.682,0.802,0.882
				c0.334,0.198,0.697,0.295,1.101,0.295c0.271,0,0.515-0.029,0.737-0.097c0.22-0.06,0.438-0.16,0.647-0.295
				c0.21-0.133,0.398-0.276,0.576-0.434c0.176-0.153,0.405-0.361,0.686-0.625c0.116-0.098,0.282-0.15,0.492-0.15
				c0.233,0,0.419,0.064,0.564,0.192c0.144,0.127,0.21,0.305,0.21,0.535c0,0.205-0.076,0.44-0.232,0.712
				c-0.162,0.274-0.401,0.533-0.724,0.786c-0.325,0.248-0.729,0.458-1.213,0.62c-0.485,0.165-1.046,0.248-1.677,0.248
				c-1.449,0-2.572-0.41-3.373-1.234c-0.801-0.827-1.206-1.945-1.206-3.357c0-0.664,0.1-1.283,0.3-1.852
				c0.194-0.571,0.484-1.056,0.867-1.464c0.378-0.409,0.843-0.72,1.398-0.937c0.555-0.216,1.17-0.324,1.848-0.324
				c0.876,0,1.632,0.185,2.261,0.56c0.629,0.368,1.107,0.848,1.414,1.436c0.314,0.592,0.471,1.188,0.471,1.8
				c0,0.563-0.164,0.929-0.488,1.1C-909.658,465.715-910.112,465.8-910.7,465.8 M-915.104,464.521h4.079
				c-0.054-0.768-0.259-1.345-0.62-1.724c-0.363-0.385-0.832-0.573-1.422-0.573c-0.562,0-1.022,0.191-1.382,0.58
				C-914.809,463.191-915.029,463.762-915.104,464.521"/>
			<path fill="#232323" d="M-901.34,465.8h-4.401c0.003,0.511,0.108,0.963,0.307,1.353c0.2,0.387,0.468,0.682,0.8,0.882
				c0.332,0.198,0.698,0.295,1.102,0.295c0.268,0,0.515-0.029,0.734-0.097c0.225-0.06,0.438-0.16,0.65-0.295
				c0.21-0.133,0.398-0.276,0.576-0.434c0.173-0.153,0.401-0.361,0.683-0.625c0.119-0.098,0.283-0.15,0.495-0.15
				c0.232,0,0.419,0.064,0.564,0.192c0.143,0.127,0.207,0.305,0.207,0.535c0,0.205-0.075,0.44-0.235,0.712
				c-0.154,0.274-0.397,0.533-0.723,0.786c-0.32,0.248-0.729,0.458-1.21,0.62c-0.482,0.165-1.047,0.248-1.678,0.248
				c-1.447,0-2.569-0.41-3.375-1.234c-0.8-0.827-1.204-1.945-1.204-3.357c0-0.664,0.102-1.283,0.303-1.852
				c0.195-0.571,0.485-1.056,0.864-1.464c0.377-0.409,0.843-0.72,1.4-0.937c0.553-0.216,1.171-0.324,1.848-0.324
				c0.874,0,1.63,0.185,2.268,0.56c0.623,0.368,1.098,0.848,1.406,1.436c0.312,0.592,0.473,1.188,0.473,1.8
				c0,0.563-0.166,0.929-0.487,1.1C-900.3,465.715-900.754,465.8-901.34,465.8 M-905.741,464.521h4.077
				c-0.054-0.768-0.263-1.345-0.62-1.724c-0.364-0.385-0.834-0.573-1.426-0.573c-0.559,0-1.02,0.191-1.381,0.58
				C-905.448,463.191-905.669,463.762-905.741,464.521"/>
			<path fill="#232323" d="M-896.411,461.936v0.27c0.422-0.521,0.862-0.903,1.321-1.148c0.451-0.246,0.972-0.37,1.548-0.37
				c0.689,0,1.332,0.18,1.915,0.536c0.583,0.359,1.039,0.881,1.378,1.566c0.339,0.69,0.51,1.501,0.51,2.441
				c0,0.691-0.098,1.33-0.293,1.91c-0.193,0.581-0.466,1.065-0.805,1.458c-0.341,0.392-0.742,0.695-1.205,0.908
				c-0.472,0.208-0.966,0.315-1.5,0.315c-0.641,0-1.183-0.129-1.619-0.389c-0.436-0.254-0.852-0.637-1.25-1.134v3.378
				c0,0.985-0.361,1.484-1.08,1.484c-0.426,0-0.702-0.127-0.842-0.381c-0.133-0.26-0.204-0.629-0.204-1.12v-9.714
				c0-0.43,0.092-0.745,0.278-0.961c0.187-0.207,0.444-0.315,0.768-0.315c0.32,0,0.578,0.108,0.778,0.324
				C-896.51,461.216-896.411,461.524-896.411,461.936 M-892,465.206c0-0.593-0.093-1.104-0.272-1.528
				c-0.182-0.429-0.434-0.754-0.753-0.98c-0.318-0.227-0.678-0.344-1.069-0.344c-0.619,0-1.144,0.248-1.569,0.733
				c-0.427,0.491-0.641,1.211-0.641,2.163c0,0.891,0.212,1.59,0.638,2.088c0.423,0.497,0.942,0.744,1.572,0.744
				c0.373,0,0.722-0.108,1.041-0.321c0.321-0.221,0.576-0.545,0.766-0.979C-892.097,466.346-892,465.821-892,465.206"/>
			<path fill="#232323" d="M-887.475,459.623c-0.313,0-0.579-0.098-0.8-0.289c-0.226-0.193-0.336-0.463-0.336-0.814
				c0-0.318,0.112-0.581,0.343-0.789c0.229-0.203,0.491-0.309,0.793-0.309c0.295,0,0.553,0.093,0.776,0.277
				c0.226,0.19,0.339,0.463,0.339,0.82c0,0.348-0.11,0.617-0.327,0.812C-886.908,459.525-887.168,459.623-887.475,459.623
				 M-886.359,461.948v6.51c0,0.448-0.106,0.789-0.32,1.018c-0.217,0.233-0.488,0.348-0.816,0.348c-0.333,0-0.596-0.116-0.808-0.353
				c-0.201-0.241-0.307-0.577-0.307-1.013v-6.445c0-0.442,0.105-0.775,0.307-1.001c0.212-0.23,0.475-0.34,0.808-0.34
				c0.328,0,0.6,0.109,0.816,0.34C-886.466,461.237-886.359,461.549-886.359,461.948"/>
			<path fill="#232323" d="M-879.105,468.795l-1.981-3.269l-1.222,1.153v1.791c0,0.435-0.115,0.767-0.346,0.999
				c-0.223,0.236-0.49,0.353-0.786,0.353c-0.346,0-0.621-0.114-0.815-0.348c-0.197-0.229-0.299-0.569-0.299-1.02v-9.6
				c0-0.498,0.099-0.877,0.287-1.14c0.194-0.265,0.473-0.394,0.827-0.394c0.348,0,0.618,0.12,0.825,0.357
				c0.201,0.234,0.307,0.585,0.307,1.043v5.461l2.528-2.658c0.315-0.325,0.55-0.555,0.719-0.674
				c0.164-0.121,0.364-0.181,0.599-0.181c0.283,0,0.515,0.089,0.707,0.268c0.185,0.179,0.277,0.404,0.277,0.67
				c0,0.329-0.307,0.772-0.915,1.32l-1.195,1.097l2.309,3.629c0.168,0.272,0.294,0.473,0.368,0.612
				c0.073,0.139,0.113,0.277,0.113,0.402c0,0.357-0.1,0.636-0.297,0.846c-0.194,0.206-0.454,0.308-0.769,0.308
				c-0.275,0-0.488-0.071-0.636-0.223C-878.648,469.45-878.854,469.18-879.105,468.795"/>
			<path fill="#232323" d="M-874.216,469.823c-0.339,0-0.63-0.11-0.88-0.331c-0.245-0.217-0.371-0.525-0.371-0.924
				c0-0.335,0.119-0.623,0.355-0.864c0.238-0.242,0.528-0.362,0.875-0.362c0.345,0,0.638,0.12,0.887,0.357
				c0.242,0.239,0.366,0.53,0.366,0.869c0,0.393-0.124,0.701-0.366,0.919C-873.599,469.712-873.887,469.823-874.216,469.823"/>
			<path fill="#232323" d="M-863.023,467.037c0,0.277-0.083,0.58-0.252,0.897c-0.166,0.32-0.424,0.623-0.768,0.91
				c-0.343,0.288-0.773,0.524-1.297,0.698c-0.522,0.175-1.111,0.266-1.763,0.266c-1.395,0-2.481-0.407-3.261-1.215
				c-0.776-0.813-1.168-1.901-1.168-3.264c0-0.926,0.178-1.741,0.537-2.451c0.353-0.707,0.871-1.256,1.546-1.642
				c0.676-0.391,1.49-0.582,2.426-0.582c0.583,0,1.116,0.085,1.606,0.256c0.486,0.169,0.896,0.392,1.237,0.658
				c0.336,0.273,0.593,0.559,0.771,0.86c0.179,0.307,0.266,0.592,0.266,0.858c0,0.266-0.099,0.494-0.297,0.683
				c-0.205,0.187-0.447,0.28-0.727,0.28c-0.191,0-0.346-0.048-0.47-0.143c-0.125-0.099-0.265-0.253-0.417-0.472
				c-0.274-0.415-0.56-0.73-0.862-0.936c-0.299-0.211-0.679-0.315-1.141-0.315c-0.661,0-1.202,0.26-1.608,0.779
				c-0.407,0.518-0.61,1.232-0.61,2.129c0,0.425,0.055,0.815,0.159,1.17c0.1,0.354,0.252,0.656,0.451,0.906
				c0.2,0.25,0.437,0.438,0.717,0.568c0.281,0.132,0.59,0.195,0.924,0.195c0.45,0,0.837-0.104,1.159-0.312
				c0.325-0.21,0.609-0.527,0.855-0.957c0.138-0.252,0.283-0.449,0.441-0.594c0.159-0.141,0.355-0.215,0.586-0.215
				c0.274,0,0.503,0.106,0.683,0.314C-863.114,466.577-863.023,466.802-863.023,467.037"/>
			<path fill="#232323" d="M-853.312,465.249c0,0.667-0.106,1.288-0.309,1.855c-0.215,0.566-0.514,1.053-0.911,1.458
				c-0.396,0.406-0.87,0.718-1.416,0.937c-0.554,0.214-1.171,0.326-1.855,0.326c-0.682,0-1.297-0.112-1.841-0.333
				c-0.54-0.217-1.016-0.534-1.412-0.938c-0.397-0.414-0.701-0.898-0.911-1.456c-0.199-0.558-0.304-1.175-0.304-1.849
				c0-0.682,0.106-1.308,0.311-1.873c0.21-0.567,0.51-1.052,0.901-1.451c0.392-0.401,0.861-0.71,1.415-0.929
				c0.558-0.216,1.171-0.324,1.841-0.324c0.682,0,1.3,0.108,1.855,0.331c0.555,0.217,1.027,0.533,1.426,0.936
				c0.398,0.412,0.696,0.894,0.903,1.451C-853.417,463.954-853.312,464.57-853.312,465.249 M-855.57,465.249
				c0-0.918-0.204-1.633-0.605-2.143c-0.403-0.518-0.945-0.77-1.627-0.77c-0.44,0-0.829,0.113-1.166,0.342
				c-0.336,0.226-0.59,0.563-0.771,1.009c-0.182,0.446-0.274,0.966-0.274,1.562c0,0.59,0.09,1.1,0.27,1.538
				c0.18,0.444,0.436,0.779,0.768,1.012c0.336,0.232,0.726,0.352,1.175,0.352c0.682,0,1.224-0.256,1.627-0.773
				C-855.774,466.864-855.57,466.152-855.57,465.249"/>
			<path fill="#232323" d="M-844.728,465.415v2.99c0,0.474-0.104,0.824-0.321,1.065c-0.217,0.236-0.495,0.354-0.848,0.354
				c-0.341,0-0.62-0.118-0.825-0.354c-0.216-0.241-0.324-0.592-0.324-1.065v-3.586c0-0.565-0.017-1.008-0.054-1.321
				c-0.039-0.307-0.146-0.569-0.314-0.767c-0.171-0.205-0.441-0.305-0.808-0.305c-0.739,0-1.221,0.252-1.456,0.765
				c-0.23,0.499-0.351,1.226-0.351,2.174v3.04c0,0.467-0.107,0.821-0.313,1.062c-0.218,0.236-0.493,0.358-0.839,0.358
				c-0.343,0-0.622-0.122-0.84-0.358c-0.217-0.24-0.325-0.595-0.325-1.062v-6.438c0-0.425,0.097-0.748,0.292-0.965
				c0.198-0.223,0.456-0.331,0.771-0.331c0.309,0,0.565,0.105,0.775,0.308c0.203,0.207,0.307,0.491,0.307,0.854v0.214
				c0.393-0.464,0.81-0.809,1.252-1.024c0.449-0.227,0.939-0.335,1.488-0.335c0.564,0,1.049,0.114,1.454,0.338
				c0.408,0.227,0.741,0.568,1.009,1.021c0.379-0.459,0.788-0.801,1.222-1.024c0.436-0.223,0.915-0.335,1.442-0.335
				c0.613,0,1.147,0.124,1.592,0.364c0.443,0.241,0.776,0.588,0.996,1.036c0.191,0.41,0.286,1.051,0.286,1.924v4.394
				c0,0.474-0.104,0.824-0.318,1.065c-0.213,0.236-0.498,0.354-0.849,0.354c-0.345,0-0.621-0.122-0.84-0.358
				c-0.217-0.24-0.325-0.595-0.325-1.062v-3.785c0-0.485-0.02-0.87-0.061-1.16c-0.041-0.293-0.152-0.539-0.331-0.735
				c-0.185-0.198-0.461-0.298-0.826-0.298c-0.297,0-0.578,0.092-0.847,0.266c-0.266,0.173-0.474,0.414-0.625,0.705
				C-844.643,463.779-844.728,464.45-844.728,465.415"/>
		</g>
		<g>
			<path fill="#232323" d="M-949.47,464.704c-0.002-0.005-0.002-0.008-0.002-0.016C-949.472,464.696-949.472,464.699-949.47,464.704
				z"/>
			<path fill="#232323" d="M-949.357,465.422c0.002,0,0.002,0,0.002,0c-0.042-0.205-0.077-0.408-0.103-0.608
				C-949.432,465.016-949.397,465.221-949.357,465.422z"/>
			<path fill="#232323" d="M-948.613,467.511c-0.005-0.009-0.009-0.02-0.014-0.028
				C-948.622,467.492-948.618,467.502-948.613,467.511z"/>
			<path fill="#232323" d="M-948.684,467.372c-0.019-0.037-0.037-0.078-0.056-0.115
				C-948.721,467.297-948.703,467.334-948.684,467.372z"/>
			<path fill="#232323" d="M-949.148,466.227c0.11,0.348,0.243,0.685,0.397,1.006c-0.156-0.328-0.287-0.666-0.394-1.006
				C-949.145,466.227-949.146,466.227-949.148,466.227z"/>
			<path fill="#232323" d="M-940.761,456.081c0.435,0,0.756,0.035,1.124,0.097l0.104-0.661c0,0-1.016-0.313-2.351-0.203
				l-0.105-0.361c0.415-0.086,0.727-0.456,0.727-0.897c0-0.504-0.411-0.914-0.917-0.914c-0.506,0-0.916,0.41-0.916,0.914
				c0,0.441,0.311,0.812,0.726,0.897l0.116,0.402c-1.418,0.194-2.547,0.749-2.547,0.749l0.2,0.611
				c0.857-0.286,1.602-0.459,2.276-0.532C-941.664,456.112-941.166,456.081-940.761,456.081z"/>
			<path fill="#232323" d="M-948.63,459.429l0.005-0.007c0.034-0.043,0.066-0.084,0.098-0.123l-0.271-0.197l-0.423-0.308
				c-0.024,0.032-0.689,0.646-1.215,1.776c-0.022-0.035-0.049-0.07-0.078-0.104c-0.158-0.173-0.378-0.26-0.659-0.256
				c-0.003,0-0.008,0-0.013,0c-0.173,0-0.292-0.058-0.37-0.128c0.077-0.098,0.125-0.222,0.125-0.357c0-0.32-0.261-0.581-0.582-0.581
				s-0.58,0.261-0.58,0.581s0.259,0.58,0.58,0.58c0.051,0,0.098-0.009,0.145-0.018c0.143,0.158,0.369,0.297,0.701,0.29
				c0.171-0.002,0.296,0.042,0.38,0.134c0.097,0.105,0.128,0.258,0.139,0.371c-0.002,0.002-0.002,0.006-0.003,0.006
				c-0.378,1.032-0.27,2.316-0.27,2.316l0.917,0.035c0.018-0.467,0.086-1.286,0.322-1.935
				C-949.225,460.249-948.653,459.461-948.63,459.429z"/>
			<path fill="#232323" d="M-932.777,456.848c-0.32,0-0.582,0.26-0.582,0.58c0,0.05,0.009,0.098,0.021,0.144
				c-0.159,0.145-0.297,0.371-0.292,0.704c0.002,0.171-0.042,0.295-0.134,0.378c-0.074,0.065-0.165,0.1-0.256,0.122
				c-0.683-0.956-1.524-1.541-1.524-1.541l-0.658,0.707c0.498,0.451,1.005,1.02,1.5,1.727c0.341,0.489,0.693,1.12,0.984,1.747
				l0.89-0.422c0,0-0.406-1.001-0.978-1.901c0.1-0.034,0.2-0.088,0.288-0.166c0.175-0.157,0.26-0.379,0.254-0.657
				c-0.001-0.182,0.058-0.304,0.129-0.384c0.099,0.075,0.223,0.124,0.358,0.124c0.321,0,0.581-0.261,0.581-0.581
				S-932.456,456.848-932.777,456.848z"/>
			<path fill="#232323" d="M-935.083,464.833c-1.224,0.597-3.235,1.383-5.885,1.754c-1.04,0.143-2.048,0.197-2.976,0.197
				c-1.207,0-2.273-0.09-3.091-0.194c-0.934-0.117-1.664-0.262-2.11-0.362c0.107,0.34,0.237,0.678,0.394,1.006
				c0.003,0.008,0.006,0.017,0.012,0.023c0.019,0.037,0.037,0.078,0.056,0.115c0.019,0.039,0.038,0.076,0.057,0.111
				c0.005,0.009,0.009,0.02,0.014,0.028c0.263,0.494,0.579,0.95,0.938,1.344c1.25,1.367,2.522,1.583,2.535,1.584l0.021,0.004
				l0.019,0.007c0.011,0.003,1.14,0.367,2.856,0.367c1.688,0,3.344-0.34,4.924-1.012c1.169-0.598,2.274-1.507,2.823-2.316
				c0.424-0.627,0.73-1.297,0.912-1.99c0.095-0.37,0.171-0.962,0.127-1.584C-933.804,464.145-934.348,464.475-935.083,464.833z"/>
			<path fill="#232323" d="M-948.237,459.719c-0.035,0.052-0.565,0.802-0.984,1.954c-0.314,0.864-0.3,2.121-0.3,2.136v0.002
				c0,0.295,0.017,0.588,0.049,0.877c0,0.008,0,0.011,0.002,0.016c0.003,0.038,0.009,0.073,0.013,0.11
				c0.026,0.2,0.06,0.403,0.103,0.608c0.608,0.155,4.233,1.001,8.286,0.436c2.541-0.354,4.468-1.103,5.639-1.671
				c0.974-0.473,1.599-0.899,1.841-1.075c-0.24-0.893-0.903-2.291-1.512-3.163c-1.74-2.487-3.616-3.125-4.581-3.283
				c-0.367-0.062-0.661-0.095-1.078-0.095c-0.388,0-0.869,0.03-1.513,0.098c-0.645,0.068-1.363,0.237-2.197,0.518
				c-1.169,0.392-2.228,1.007-3.061,1.777l-0.028,0.026C-947.682,459.102-947.94,459.342-948.237,459.719z M-937.59,459.14
				c0.834,0,1.513,0.678,1.513,1.513s-0.679,1.514-1.513,1.514s-1.512-0.679-1.512-1.514S-938.424,459.14-937.59,459.14z
				 M-944.742,459.081c1.351,0,2.445,1.095,2.445,2.443c0,1.352-1.094,2.443-2.445,2.443c-1.349,0-2.443-1.092-2.443-2.443
				C-947.185,460.175-946.091,459.081-944.742,459.081z"/>
		</g>
	</g>
	<g>
		<g>
			<g>
				<g>
					
						<linearGradient id="SVGID_19_" gradientUnits="userSpaceOnUse" x1="-441.9854" y1="-16140.873" x2="-298.5557" y2="-16140.873" gradientTransform="matrix(1 0 0 -1 0 -16215.9375)">
						<stop  offset="0" style="stop-color:#913CA3"/>
						<stop  offset="1" style="stop-color:#57284C"/>
					</linearGradient>
					<path fill="url(#SVGID_19_)" d="M-319.77-91.122c33.402-17.016,21.982-47.682,2.43-54.951
						c-10.096-3.76-17.432-1.545-24.514,0.594c-16.24,6.57-32.26,14.457-46.969,23.383c-20.895,12.693-36.025,25.621-44.699,37.238
						c-3.104,4.156-5.379,8.154-6.787,11.914c-0.229,0.641-0.402,1.324-0.549,2.035c0-0.002,0.002-0.002,0-0.002
						c-0.002,0.016-0.006,0.033-0.008,0.051c0.004-0.016,0.006-0.033,0.008-0.049c-0.701,2.346-1.041,4.584-1.018,6.709
						c0.156-0.566,0.445-0.646,0.6-0.658l0.326,0.088c1.053,0.41,0.826,0.188-0.326-0.088c-0.35,0.131-0.506,0.369-0.602,0.697
						c0-0.014,0.002-0.027,0.002-0.039c-0.006,0.018-0.012,0.037-0.016,0.057c-0.016,0.055-0.041,0.119-0.051,0.18
						c-0.047,0.316-0.064,0.729-0.014,1.324l0.033,0.326l0.164,1.113l0.064,0.334l-0.01-0.066l0.658,3.258
						c3.287,12.664,3.477,13.426,6.484,20.932c6.17,13.596,6.299,13.85,14.102,25.693l1.121,1.553l5.947,7.477
						c-2.092-2.408-3.289-5.201-3.646-8.275c-0.363-3.152,0.166-6.623,1.555-10.332c1.383-3.654,3.596-7.535,6.607-11.576
						c8.438-11.291,23.141-23.855,43.461-36.191C-351.133-77.073-335.551-84.749-319.77-91.122z M-430.977-87.386
						c0.078-0.055,0.162-0.072,0.242-0.125c-0.117,0.082-0.254,0.15-0.365,0.236C-431.059-87.304-431.018-87.358-430.977-87.386z
						 M-438.113-47.431c2.143,7.242,4.738,12.91,6.148,15.744C-434.326-36.378-436.475-41.788-438.113-47.431z M-427.156-40.853
						c2.604,6.023,5.158,12.678,7.289,19.383C-421.967-28.063-424.525-34.751-427.156-40.853z M-418.125-17.454l-0.479,0.133
						c0.244-0.068,0.445-0.168,0.654-0.262C-418.018-17.548-418.051-17.487-418.125-17.454z"/>
				</g>
				<g>
					<path fill="#2D2C2C" d="M-327.586,41.497c-1.188-0.098-2.248-0.221-3.314-0.344c0.451,0.059,0.854,0.111,1.342,0.174
						L-327.586,41.497z"/>
					<path fill="#2D2C2C" d="M-405.883-174.454c-1.285,1.287-2.701,2.738-4.684,4.789
						C-408.973-171.394-407.426-172.96-405.883-174.454z"/>
				</g>
			</g>
			
				<linearGradient id="SVGID_20_" gradientUnits="userSpaceOnUse" x1="-441.7578" y1="-16143.4688" x2="-191.7686" y2="-16143.4688" gradientTransform="matrix(1 0 0 -1 0 -16215.9375)">
				<stop  offset="0" style="stop-color:#8B50DC"/>
				<stop  offset="0.3639" style="stop-color:#913CA3"/>
				<stop  offset="1" style="stop-color:#57284C"/>
			</linearGradient>
			<path fill="url(#SVGID_20_)" d="M-191.801-92.171l-0.621-6.871c-0.973-7.838-1.102-8.338-4.371-21.184
				c-1.086-3.527-2.828-8.148-4.086-11.615c-3.078-7.449-3.465-8.137-9.963-19.504l-1.188-1.859l0.756,1.74
				c4.785,12.098-6.072,30.043-30.24,48.818l-3.174,2.418c-0.91,0.678-1.834,1.355-2.779,2.035
				c-4.857,3.486-10.17,6.996-15.916,10.492c-53.848,32.703-125.578,51.518-160.209,42.023c-10.92-2.996-16.838-8.447-18.166-15.523
				l0.064,0.334c0.006,0.02,0.012,0.041,0.016,0.061l0.633,3.131c1.736,7.775,1.91,8.27,6.484,20.932
				c5.889,13.125,6.047,13.359,14.102,25.693l1.121,1.553c-1.471-1.986-3.943-6.418-6.777-12.166
				c-0.479-0.99-11.359-23.143-15.033-37.029c3.562,13.242,15.457,39.51,21.811,49.195l5.947,7.477
				c2.943,3.418,7.633,6.111,14.172,7.896c33.664,9.229,103.393-9.053,155.719-40.846c5.586-3.389,10.758-6.811,15.475-10.203
				C-203.752-62.614-191.041-79.681-191.801-92.171z"/>
			<g>
				
					<linearGradient id="SVGID_21_" gradientUnits="userSpaceOnUse" x1="-434.4004" y1="-16183.1426" x2="-430.1602" y2="-16183.1426" gradientTransform="matrix(1 0 0 -1 0 -16215.9375)">
					<stop  offset="0" style="stop-color:#CA5AFE;stop-opacity:0.3"/>
					<stop  offset="0.1432" style="stop-color:#D46AFA;stop-opacity:0.4956"/>
					<stop  offset="0.3058" style="stop-color:#DB74F7;stop-opacity:0.7177"/>
					<stop  offset="0.5124" style="stop-color:#DD77F6"/>
					<stop  offset="1" style="stop-color:#57284C;stop-opacity:0"/>
				</linearGradient>
				<path fill="url(#SVGID_21_)" d="M-433.162-33.636c0.576,0.887,1.197,1.838,1.881,2.883l1.121,1.553
					c-1.01-1.365-2.492-3.883-4.24-7.188C-433.957-35.401-433.547-34.485-433.162-33.636z"/>
				
					<linearGradient id="SVGID_22_" gradientUnits="userSpaceOnUse" x1="-441.7578" y1="-16136.334" x2="-202.5908" y2="-16136.334" gradientTransform="matrix(1 0 0 -1 0 -16215.9375)">
					<stop  offset="0" style="stop-color:#CA5AFE;stop-opacity:0.3"/>
					<stop  offset="0.0787" style="stop-color:#D46AFA;stop-opacity:0.4956"/>
					<stop  offset="0.168" style="stop-color:#DB74F7;stop-opacity:0.7177"/>
					<stop  offset="0.2816" style="stop-color:#DD77F6"/>
					<stop  offset="0.8154" style="stop-color:#57284C;stop-opacity:0"/>
					<stop  offset="0.9333" style="stop-color:#602D57;stop-opacity:0.2163"/>
				</linearGradient>
				<path fill="url(#SVGID_22_)" d="M-254.322-54.673c5.586-3.389,10.758-6.811,15.475-10.203
					c24.271-17.441,36.984-34.508,36.225-46.998l-0.621-6.871c-0.973-7.838-1.102-8.336-4.371-21.184
					c-0.725-2.352-1.738-5.186-2.707-7.844c1.594,11.904-9.371,28.178-31.191,45.127l-3.174,2.418
					c-0.91,0.678-1.834,1.355-2.779,2.035c-4.857,3.486-10.17,6.996-15.916,10.492c-53.848,32.703-125.578,51.518-160.209,42.023
					c-10.92-2.996-16.838-8.447-18.166-15.523l0.064,0.334c0.006,0.02,0.012,0.041,0.016,0.061l0.633,3.131
					c1.723,7.717,1.91,8.268,6.383,20.648c1.654,3.135,3.195,5.834,4.502,7.826l1.152,1.449c-3.609-7.775-9.6-21.334-12.141-30.941
					c2.102,7.814,7.107,20.164,12.162,30.967l4.773,6.002c2.943,3.418,7.633,6.113,14.172,7.898
					C-376.377-4.599-306.648-22.88-254.322-54.673z"/>
				<g>
					
						<linearGradient id="SVGID_23_" gradientUnits="userSpaceOnUse" x1="-441.7578" y1="-16123.6172" x2="-210.1738" y2="-16123.6172" gradientTransform="matrix(1 0 0 -1 0 -16215.9375)">
						<stop  offset="0" style="stop-color:#FFFFFF;stop-opacity:0"/>
						<stop  offset="0.3311" style="stop-color:#FFFFFF"/>
						<stop  offset="0.4263" style="stop-color:#FFFFFF;stop-opacity:0.8577"/>
						<stop  offset="1" style="stop-color:#FFFFFF;stop-opacity:0"/>
					</linearGradient>
					<path fill="url(#SVGID_23_)" d="M-441.678-60.806l0.633,3.131c0.297,1.332,0.549,2.449,0.785,3.453
						c0.297,0.568,0.625,1.125,0.998,1.666c-0.734-2.15-1.381-4.223-1.887-6.137c0.496,1.846,1.158,3.951,1.941,6.223
						c2.904,4.148,8.061,7.396,15.615,9.469c34.631,9.494,106.361-9.32,160.209-42.023c5.746-3.496,11.059-7.006,15.916-10.492
						c0.945-0.68,1.869-1.357,2.779-2.035l3.174-2.418c21.217-16.48,32.166-32.322,31.291-44.129
						c-0.797,11.471-11.639,26.186-31.291,41.453l-3.174,2.418c-0.91,0.678-1.834,1.355-2.779,2.035
						c-4.857,3.486-10.17,6.996-15.916,10.492c-53.848,32.703-125.578,51.518-160.209,42.023
						c-10.92-2.996-16.838-8.447-18.166-15.523l0.064,0.334C-441.688-60.847-441.682-60.825-441.678-60.806z"/>
					
						<linearGradient id="SVGID_24_" gradientUnits="userSpaceOnUse" x1="-438.1113" y1="-16175.6523" x2="-432.9395" y2="-16175.6523" gradientTransform="matrix(1 0 0 -1 0 -16215.9375)">
						<stop  offset="0" style="stop-color:#CA5AFE;stop-opacity:0.3"/>
						<stop  offset="0.0787" style="stop-color:#D46AFA;stop-opacity:0.4956"/>
						<stop  offset="0.168" style="stop-color:#DB74F7;stop-opacity:0.7177"/>
						<stop  offset="0.2816" style="stop-color:#DD77F6"/>
						<stop  offset="0.8154" style="stop-color:#57284C;stop-opacity:0"/>
						<stop  offset="0.9333" style="stop-color:#602D57;stop-opacity:0.2163"/>
					</linearGradient>
					<path fill="url(#SVGID_24_)" d="M-438.111-46.722c0.119,0.352,0.246,0.719,0.379,1.105c1.48,3.949,3.148,7.99,4.754,11.695
						c0.012,0.023,0.025,0.049,0.039,0.072C-434.85-38.278-436.629-42.69-438.111-46.722z"/>
				</g>
			</g>
			<path fill="#2D2C2C" d="M-198.303-43.778c0.146-0.379,0.281-0.756,0.406-1.129C-198.027-44.546-198.164-44.167-198.303-43.778z"
				/>
			
				<linearGradient id="SVGID_25_" gradientUnits="userSpaceOnUse" x1="-376.1348" y1="-16214.9766" x2="-198.3027" y2="-16214.9766" gradientTransform="matrix(1 0 0 -1 0 -16215.9375)">
				<stop  offset="0" style="stop-color:#37BFE7"/>
				<stop  offset="0.4901" style="stop-color:#4AA3E7"/>
				<stop  offset="1" style="stop-color:#214D72"/>
			</linearGradient>
			<path fill="url(#SVGID_25_)" d="M-239.965-4.147c-7.242,4.398-14.889,8.494-22.732,12.227
				c-26.996,12.828-56.328,21.35-79.639,23.365c-10.695,0.93-20.115,0.486-27.482-1.529l-2.316-0.713
				c-1.461-0.5-2.795-1.074-4-1.693l1.453,0.75l2.908,1.418c0.537,0.242,1.043,0.473,1.523,0.689
				c0.385,0.938,2.027,1.566,4.477,1.967c4.037,1.695,6.82,2.559,14.805,5.051c5.953,1.486,9.234,2.193,12.867,2.771
				c5.824,1.068,11.961,1.758,17.975,1.699c0.527-0.006,1.043-0.021,1.561-0.037c1.521,0.023,3,0.037,4.32,0.035
				c2.805-0.119,6.518-0.373,9.346-0.6c-0.023,0.004-0.033,0.004-0.057,0.008l0.104-0.012c0.021,0,0.049-0.002,0.07-0.004
				c0.033-0.004,0.045-0.008,0.076-0.012l0.248-0.023c0.074-0.008,0.16-0.031,0.234-0.039c0.645-0.08,1.117-0.156,1.432-0.229
				c12.232-1.531,26.895-5.926,40.539-12.412c4.299-2.051,8.496-4.295,12.477-6.711c2.842-1.734,5.445-3.469,7.807-5.201
				c7.529-5.857,9.543-7.797,15.373-13.625c7.193-7.672,10.492-12.494,15.049-19.17c5.172-8.453,5.969-10.195,10.363-19.848
				c0.98-2.258,1.994-5.256,2.883-7.754C-202.734-32.271-217.082-18.044-239.965-4.147z M-367.68,30.673
				c0.605,0.195,1.26,0.404,1.916,0.615C-366.426,31.075-367.006,30.89-367.68,30.673z M-346.098,31.987
				c0.414-0.088,0.811-0.162,1.152-0.217l0.859-0.121C-344.725,31.733-345.414,31.845-346.098,31.987z M-344.047,31.644l0.355-0.051
				l0.502-0.055C-343.459,31.569-343.746,31.603-344.047,31.644z M-267.439,10.622c0.934-0.562,2.119-1.18,3.232-1.756
				c-0.996,0.533-1.936,1.062-2.812,1.586c-0.273,0.141-0.541,0.279-0.807,0.414C-267.697,10.784-267.574,10.704-267.439,10.622z"/>
			
				<linearGradient id="SVGID_26_" gradientUnits="userSpaceOnUse" x1="-369.9277" y1="-16234.8828" x2="-242.082" y2="-16234.8828" gradientTransform="matrix(1 0 0 -1 0 -16215.9375)">
				<stop  offset="0" style="stop-color:#92D1EC"/>
				<stop  offset="0.1832" style="stop-color:#6FD1EC"/>
				<stop  offset="0.3008" style="stop-color:#6CCBE7;stop-opacity:0.8559"/>
				<stop  offset="0.4528" style="stop-color:#62BBD8;stop-opacity:0.6699"/>
				<stop  offset="0.6237" style="stop-color:#52A1BF;stop-opacity:0.4607"/>
				<stop  offset="0.8083" style="stop-color:#3D7C9D;stop-opacity:0.2347"/>
				<stop  offset="1" style="stop-color:#214D72;stop-opacity:0"/>
			</linearGradient>
			<path fill="url(#SVGID_26_)" d="M-246.432,1.935c1.633-1.742,3.057-3.332,4.35-4.836c-6.615,3.924-13.525,7.607-20.615,10.98
				c-26.996,12.828-56.328,21.35-79.639,23.365c-8.742,0.76-16.631,0.602-23.244-0.582c-0.117,0.023-0.234,0.041-0.352,0.066
				c0.117-0.025,0.227-0.047,0.338-0.068c-0.305-0.055-0.604-0.115-0.904-0.174c-0.33,0.018-0.66,0.033-0.988,0.049
				c0.551,0.178,1.133,0.363,1.723,0.553c-0.596-0.191-1.133-0.363-1.723-0.553c-0.822,0.035-1.639,0.066-2.441,0.086
				c0.666,0.689,2.127,1.18,4.154,1.512c4.037,1.695,6.82,2.559,14.805,5.051c5.953,1.486,9.234,2.193,12.867,2.771
				c1.27,0.234,2.557,0.443,3.852,0.637c0.055,0,0.115,0,0.17,0c2.805-0.119,6.516-0.373,9.346-0.598
				c-0.023,0.002-0.033,0.004-0.057,0.006l0.104-0.01c0.02-0.002,0.049-0.004,0.07-0.006c0.031-0.004,0.043-0.006,0.076-0.01
				l0.246-0.025c0.076-0.008,0.162-0.029,0.236-0.037c0.645-0.082,1.117-0.158,1.432-0.23c12.232-1.531,26.893-5.926,40.539-12.41
				c4.297-2.053,8.496-4.297,12.477-6.711c2.842-1.736,5.445-3.469,7.807-5.201C-254.275,9.7-252.262,7.763-246.432,1.935z
				 M-346.098,31.987c0.414-0.088,0.811-0.162,1.152-0.217l0.859-0.121C-344.725,31.733-345.414,31.845-346.098,31.987z
				 M-344.047,31.644l0.355-0.051l0.502-0.055C-343.459,31.569-343.746,31.603-344.047,31.644z M-267.02,10.452
				c-0.273,0.141-0.541,0.279-0.807,0.414c0.129-0.082,0.252-0.162,0.387-0.244c0.934-0.562,2.119-1.18,3.232-1.756
				C-265.203,9.399-266.143,9.929-267.02,10.452z"/>
			<g opacity="0.69">
				
					<linearGradient id="SVGID_27_" gradientUnits="userSpaceOnUse" x1="-267.8262" y1="-16228.0957" x2="-264.207" y2="-16228.0957" gradientTransform="matrix(1 0 0 -1 0 -16215.9375)">
					<stop  offset="0" style="stop-color:#FFFFFF;stop-opacity:0"/>
					<stop  offset="0.2614" style="stop-color:#FFFFFF;stop-opacity:0.8577"/>
					<stop  offset="0.3048" style="stop-color:#FFFFFF"/>
					<stop  offset="1" style="stop-color:#FFFFFF;stop-opacity:0"/>
				</linearGradient>
				<path fill="url(#SVGID_27_)" d="M-267.439,12.917c-0.135,0.08-0.258,0.162-0.387,0.242c0.266-0.135,0.533-0.271,0.807-0.412
					c0.877-0.525,1.816-1.055,2.812-1.588C-265.32,11.735-266.506,12.353-267.439,12.917z"/>
				
					<linearGradient id="SVGID_28_" gradientUnits="userSpaceOnUse" x1="-369.9277" y1="-16231.5859" x2="-242.082" y2="-16231.5859" gradientTransform="matrix(1 0 0 -1 0 -16215.9375)">
					<stop  offset="0" style="stop-color:#FFFFFF;stop-opacity:0"/>
					<stop  offset="0.2614" style="stop-color:#FFFFFF;stop-opacity:0.8577"/>
					<stop  offset="0.3048" style="stop-color:#FFFFFF"/>
					<stop  offset="1" style="stop-color:#FFFFFF;stop-opacity:0"/>
				</linearGradient>
				<path fill="url(#SVGID_28_)" d="M-362.555,33.606c5.949,0.752,12.77,0.779,20.219,0.131
					c23.311-2.016,52.643-10.535,79.639-23.365c5.572-2.65,11.029-5.5,16.322-8.5c1.609-1.717,3.016-3.287,4.293-4.773
					c-6.615,3.924-13.525,7.607-20.615,10.98c-26.996,12.828-56.328,21.35-79.639,23.365c-8.742,0.76-16.631,0.602-23.244-0.582
					c-0.117,0.023-0.234,0.041-0.352,0.066c0.117-0.025,0.227-0.047,0.338-0.068c-0.305-0.055-0.604-0.115-0.904-0.174
					c-0.33,0.018-0.66,0.033-0.988,0.049c0.551,0.178,1.133,0.363,1.723,0.553c-0.596-0.191-1.133-0.363-1.723-0.553
					c-0.822,0.035-1.639,0.066-2.441,0.086c0.666,0.689,2.127,1.18,4.154,1.512C-364.65,32.804-363.623,33.212-362.555,33.606z
					 M-267.439,10.622c0.934-0.562,2.119-1.18,3.232-1.756c-0.996,0.533-1.936,1.062-2.812,1.586
					c-0.273,0.141-0.541,0.279-0.807,0.414C-267.697,10.784-267.574,10.704-267.439,10.622z M-343.691,31.593l0.502-0.055
					c-0.27,0.031-0.557,0.064-0.857,0.105L-343.691,31.593z M-344.945,31.771l0.859-0.121c-0.639,0.084-1.328,0.195-2.012,0.338
					C-345.684,31.899-345.287,31.825-344.945,31.771z"/>
				
					<linearGradient id="SVGID_29_" gradientUnits="userSpaceOnUse" x1="-346.0977" y1="-16250.0488" x2="-344.0859" y2="-16250.0488" gradientTransform="matrix(1 0 0 -1 0 -16215.9375)">
					<stop  offset="0" style="stop-color:#FFFFFF;stop-opacity:0"/>
					<stop  offset="0.2614" style="stop-color:#FFFFFF;stop-opacity:0.8577"/>
					<stop  offset="0.3048" style="stop-color:#FFFFFF"/>
					<stop  offset="1" style="stop-color:#FFFFFF;stop-opacity:0"/>
				</linearGradient>
				<path fill="url(#SVGID_29_)" d="M-346.098,34.282c0.684-0.145,1.373-0.254,2.012-0.34l-0.859,0.123
					C-345.287,34.118-345.684,34.192-346.098,34.282z"/>
				
					<linearGradient id="SVGID_30_" gradientUnits="userSpaceOnUse" x1="-344.0469" y1="-16249.8203" x2="-343.1895" y2="-16249.8203" gradientTransform="matrix(1 0 0 -1 0 -16215.9375)">
					<stop  offset="0" style="stop-color:#FFFFFF;stop-opacity:0"/>
					<stop  offset="0.2614" style="stop-color:#FFFFFF;stop-opacity:0.8577"/>
					<stop  offset="0.3048" style="stop-color:#FFFFFF"/>
					<stop  offset="1" style="stop-color:#FFFFFF;stop-opacity:0"/>
				</linearGradient>
				<path fill="url(#SVGID_30_)" d="M-344.047,33.937c0.301-0.039,0.588-0.074,0.857-0.105l-0.502,0.055L-344.047,33.937z"/>
			</g>
			
				<linearGradient id="SVGID_31_" gradientUnits="userSpaceOnUse" x1="-437.0098" y1="-16059.7539" x2="-255.1367" y2="-16059.7539" gradientTransform="matrix(1 0 0 -1 0 -16215.9375)">
				<stop  offset="0" style="stop-color:#EC5695"/>
				<stop  offset="0.5" style="stop-color:#F65275"/>
				<stop  offset="1" style="stop-color:#FF565E"/>
			</linearGradient>
			<path fill="url(#SVGID_31_)" d="M-255.26-187.7l-0.23-1.219l-0.254-0.885l-0.178-0.545l-0.076-0.191
				c-5.961-8.563-25.615-13.697-26.447-13.918c-15.244-3.912-28.725-2.242-29.438,0.93l0.043,0.094l0.094,0.279l0.129,0.466
				l0.117,0.632l0.066,0.811l-0.045,0.982l-0.188,1.147l-0.383,1.321l-0.629,1.475l-0.887,1.603l-1.16,1.735l-1.453,1.844
				l-1.736,1.906c-0.635,0.646-1.303,1.305-2.01,1.955c-0.713,0.652-1.457,1.314-2.25,1.973c-0.775,0.652-1.596,1.303-2.447,1.961
				c-0.279,0.25-0.514,0.512-0.754,0.777c0.041-0.049,0.039-0.135,0.084-0.182l0.67-0.596l-0.869,0.645l-0.871,0.648l-0.896,0.635
				l-0.893,0.617l-0.908,0.623l-0.91,0.605l-0.918,0.59l-0.92,0.584l-0.916,0.562l-0.32,0.199l-0.584,0.35l-0.891,0.529
				l-0.873,0.506l-0.85,0.482l-0.816,0.461l-0.803,0.443l-0.764,0.42l-0.74,0.387l-0.703,0.369l-0.672,0.348l-0.627,0.318
				l-0.584,0.297l-0.551,0.277l-0.51,0.242l-0.461,0.223l-0.4,0.199l-0.371,0.172l-0.309,0.154l-0.264,0.121l-0.199,0.096
				l-0.139,0.068l-0.094,0.045l-0.029,0.018c-12.736,5.943-26.412,9.965-37.6,11.162c-3.939,0.387-7.523,0.367-10.379,0.211
				c-1.766-0.158-3.398-0.428-4.863-0.824c-11.969-3.281-9.178-13.84,5.393-25.094c0.854-0.658,1.746-1.316,2.676-1.977
				l-0.188,0.127c0.006-0.004,0.014-0.01,0.02-0.014c-4.193,3-4.811,3.508-9.602,7.461c-2.363,2-3.994,3.527-6.064,5.604
				c0.033-0.031,0.064-0.059,0.096-0.09c-1.531,1.479-3.102,3.064-4.711,4.814c-2.291,2.584-5.23,6.127-7.4,8.814
				c-6.4,8.855-7.521,10.898-12.258,19.514c-1.752,3.604-3.855,8.529-5.412,12.221c-3.924,10.115,0.082,18.072,13.021,21.613
				c6.293,1.729,14.154,2.264,23.037,1.75c22.641-1.324,51.924-9.469,79.008-22.123l0.066-0.02l0.168-0.086l0.285-0.139l0.395-0.178
				l0.496-0.234l0.602-0.295l0.695-0.33l0.803-0.379l0.873-0.436l0.984-0.486l1.062-0.525l1.135-0.566l1.215-0.627l1.291-0.666
				l1.357-0.711l1.416-0.756l1.486-0.803l1.547-0.848l1.584-0.895l1.646-0.93l1.672-0.98l1.717-1.021l1.121-0.676l0.641-0.385
				l1.76-1.086l1.779-1.129l1.758-1.139l1.766-1.176l1.762-1.193l1.738-1.205l1.719-1.223l1.682-1.24l1.664-1.252
				c1.652-1.268,3.232-2.529,4.73-3.777c1.539-1.285,2.977-2.557,4.348-3.811c1.377-1.273,2.664-2.537,3.881-3.787
				c1.197-1.248,2.316-2.471,3.355-3.686c1.008-1.197,1.953-2.379,2.807-3.547c0.826-1.127,1.58-2.252,2.248-3.348
				c0.646-1.057,1.219-2.098,1.709-3.117c0.469-0.967,0.867-1.914,1.201-2.84l0.75-2.549l0.367-2.225l0.084-1.895L-255.26-187.7z
				 M-347.5-169.64l0.42-0.277c-0.209,0.16-0.418,0.318-0.631,0.516C-347.635-169.472-347.576-169.573-347.5-169.64z"/>
			
				<linearGradient id="SVGID_32_" gradientUnits="userSpaceOnUse" x1="-431.5977" y1="-16046.4551" x2="-262.0723" y2="-16046.4551" gradientTransform="matrix(1 0 0 -1 0 -16215.9375)">
				<stop  offset="0" style="stop-color:#FBA9AD;stop-opacity:0"/>
				<stop  offset="0" style="stop-color:#FBA9AD"/>
				<stop  offset="0.7282" style="stop-color:#FBA9AD;stop-opacity:0"/>
			</linearGradient>
			<path fill="url(#SVGID_32_)" d="M-399.51-132.413c22.641-1.324,51.924-9.469,79.008-22.123l0.066-0.02l0.168-0.086l0.285-0.139
				l0.395-0.178l0.496-0.236l0.602-0.293l0.695-0.33l0.803-0.379l0.873-0.436l0.984-0.486l1.062-0.525l1.135-0.568l1.215-0.625
				l1.291-0.666l1.357-0.711l1.416-0.754l1.486-0.805l1.547-0.848l1.584-0.895l1.646-0.93l1.672-0.98l1.717-1.021l1.121-0.676
				l0.641-0.385l1.76-1.086l1.779-1.129l1.758-1.139l1.766-1.176l1.762-1.193l1.738-1.205l1.719-1.223l1.682-1.24l1.664-1.25
				c1.652-1.27,3.232-2.529,4.73-3.779c1.539-1.285,2.977-2.557,4.348-3.811c1.377-1.273,2.664-2.537,3.881-3.787
				c1.197-1.246,2.316-2.469,3.355-3.686c0.793-0.94,1.529-1.869,2.23-2.791c-8.109-5.247-19.736-8.289-20.373-8.457
				c-15.244-3.912-28.725-2.242-29.438,0.93l0.043,0.094l0.094,0.279l0.129,0.466l0.117,0.632l0.066,0.811l-0.045,0.982
				l-0.188,1.147l-0.383,1.321l-0.629,1.475l-0.887,1.603l-1.16,1.735l-1.453,1.844l-1.736,1.906
				c-0.635,0.646-1.303,1.305-2.01,1.955c-0.713,0.652-1.457,1.314-2.25,1.973c-0.775,0.652-1.596,1.303-2.447,1.961
				c-0.279,0.25-0.514,0.512-0.754,0.777c0.041-0.049,0.039-0.135,0.084-0.182l0.67-0.596l-0.869,0.645l-0.871,0.648l-0.896,0.635
				l-0.893,0.617l-0.908,0.623l-0.91,0.605l-0.918,0.59l-0.92,0.584l-0.916,0.562l-0.32,0.199l-0.584,0.35l-0.891,0.529
				l-0.873,0.506l-0.85,0.482l-0.816,0.461l-0.803,0.443l-0.764,0.42l-0.74,0.387l-0.703,0.369l-0.672,0.348l-0.627,0.318
				l-0.584,0.297l-0.551,0.277l-0.51,0.242l-0.461,0.223l-0.4,0.199l-0.371,0.172l-0.309,0.154l-0.264,0.121l-0.199,0.096
				l-0.139,0.068l-0.094,0.045l-0.029,0.018c-12.736,5.943-26.412,9.965-37.6,11.162c-3.939,0.387-7.523,0.367-10.379,0.211
				c-1.766-0.158-3.398-0.428-4.863-0.824c-11.969-3.281-9.178-13.84,5.393-25.094c0.268-0.207,0.545-0.412,0.818-0.617
				c-0.014-0.002-0.027-0.002-0.041-0.002c-2.752,1.994-3.83,2.883-7.871,6.217c-2.363,2-3.994,3.527-6.064,5.604
				c0.033-0.031,0.064-0.059,0.096-0.09c-1.531,1.479-3.102,3.064-4.711,4.814c-2.291,2.584-5.23,6.127-7.4,8.814
				c-6.4,8.855-7.521,10.898-12.258,19.514c-0.461,0.949-0.947,1.992-1.441,3.076c2.277,1.725,5.283,3.133,9.051,4.162
				C-416.254-132.435-408.393-131.899-399.51-132.413z M-347.5-169.64l0.42-0.277c-0.209,0.16-0.418,0.318-0.631,0.516
				C-347.635-169.472-347.576-169.573-347.5-169.64z"/>
			<g>
				
					<linearGradient id="SVGID_33_" gradientUnits="userSpaceOnUse" x1="-347.7109" y1="-16049.2051" x2="-347.0801" y2="-16049.2051" gradientTransform="matrix(1 0 0 -1 0 -16215.9375)">
					<stop  offset="0" style="stop-color:#FFFFFF"/>
					<stop  offset="1" style="stop-color:#FFFFFF;stop-opacity:0"/>
				</linearGradient>
				<path fill="url(#SVGID_33_)" d="M-347.711-166.474c0.213-0.197,0.422-0.354,0.631-0.516l-0.42,0.277
					C-347.576-166.644-347.635-166.544-347.711-166.474z"/>
				
					<linearGradient id="SVGID_34_" gradientUnits="userSpaceOnUse" x1="-405.5986" y1="-16037.7852" x2="-311.4336" y2="-16037.7852" gradientTransform="matrix(1 0 0 -1 0 -16215.9375)">
					<stop  offset="0" style="stop-color:#FFFFFF"/>
					<stop  offset="1" style="stop-color:#FFFFFF;stop-opacity:0"/>
				</linearGradient>
				<path opacity="0.52" fill="url(#SVGID_34_)" d="M-398.117-160.562c-4.363-1.195-6.756-3.361-7.34-6.174
					c-0.766,4.236,1.562,7.52,7.34,9.104c1.465,0.396,3.098,0.664,4.863,0.824c2.855,0.154,6.439,0.174,10.379-0.211
					c11.188-1.199,24.863-5.219,37.6-11.164l0.029-0.018l0.094-0.045l0.139-0.068l0.199-0.094l0.264-0.123l0.309-0.154l0.371-0.17
					l0.4-0.199l0.461-0.225l0.51-0.24l0.551-0.277l0.584-0.297l0.627-0.32l0.672-0.348l0.703-0.367l0.74-0.387l0.764-0.422
					l0.803-0.441l0.816-0.463l0.85-0.482l0.873-0.506l0.891-0.527l0.584-0.352l0.32-0.199l0.916-0.562l0.92-0.582l0.918-0.59
					l0.91-0.605l0.908-0.623l0.893-0.617l0.896-0.637l0.871-0.646l0.869-0.646c0.852-0.658,1.672-1.307,2.447-1.959
					c0.793-0.658,1.537-1.32,2.25-1.973c0.707-0.652,1.375-1.309,2.01-1.955l1.736-1.908l1.453-1.842l1.16-1.736l0.887-1.603
					l0.629-1.474l0.383-1.322l0.188-1.147l0.045-0.981l-0.066-0.812l-0.088-0.47l-0.078,0.481l-0.383,1.321l-0.629,1.475
					l-0.887,1.603l-1.16,1.735l-1.453,1.844l-1.736,1.906c-0.635,0.646-1.303,1.305-2.01,1.955c-0.713,0.652-1.457,1.314-2.25,1.973
					c-0.775,0.652-1.596,1.303-2.447,1.961c-0.279,0.25-0.514,0.512-0.754,0.777c0.041-0.049,0.039-0.135,0.084-0.182l0.67-0.596
					l-0.869,0.645l-0.871,0.648l-0.896,0.635l-0.893,0.617l-0.908,0.623l-0.91,0.605l-0.918,0.59l-0.92,0.584l-0.916,0.562
					l-0.32,0.199l-0.584,0.35l-0.891,0.529l-0.873,0.506l-0.85,0.482l-0.816,0.461l-0.803,0.443l-0.764,0.42l-0.74,0.387
					l-0.703,0.369l-0.672,0.348l-0.627,0.318l-0.584,0.297l-0.551,0.277l-0.51,0.242l-0.461,0.223l-0.4,0.199l-0.371,0.172
					l-0.309,0.154l-0.264,0.121l-0.199,0.096l-0.139,0.068l-0.094,0.045l-0.029,0.018c-12.736,5.943-26.412,9.965-37.6,11.162
					c-3.939,0.387-7.523,0.367-10.379,0.211C-395.02-159.896-396.652-160.165-398.117-160.562z M-347.5-169.64l0.42-0.277
					c-0.209,0.16-0.418,0.318-0.631,0.516C-347.635-169.472-347.576-169.573-347.5-169.64z"/>
				
					<linearGradient id="SVGID_35_" gradientUnits="userSpaceOnUse" x1="-325.375" y1="-16035.9082" x2="-324.6211" y2="-16035.9082" gradientTransform="matrix(1 0 0 -1 0 -16215.9375)">
					<stop  offset="0" style="stop-color:#FFFFFF"/>
					<stop  offset="1" style="stop-color:#FFFFFF;stop-opacity:0"/>
				</linearGradient>
				<path fill="url(#SVGID_35_)" d="M-325.375-179.64c0.24-0.266,0.475-0.525,0.754-0.777l-0.67,0.596
					C-325.336-179.774-325.334-179.688-325.375-179.64z"/>
			</g>
		</g>
		<g>
			<text transform="matrix(1 0 0 1 -448.6992 121.9399)" fill="#383838" font-family="'Bodonitown'" font-size="54.083">HARMONY</text>
			
				<text transform="matrix(1 0 0 1 -442.0352 141.5571)" fill="#383838" font-family="'Roboto-Light'" font-size="14.7213" letter-spacing="4">LEADER TRADING GROUP</text>
		</g>
	</g>
	<g>
		<g>
			<rect x="29.094" y="50.032" fill="#00A99D" width="275" height="307"/>
			<path fill="#FFFFEA" d="M167.244,360.944c-87.186,0-158.115-70.928-158.115-158.113c0-87.184,70.93-158.112,158.115-158.112
				c87.183,0,158.11,70.928,158.11,158.112C325.354,290.016,254.427,360.944,167.244,360.944z"/>
			<path fill="#FFFFEA" stroke="#000000" stroke-width="3" stroke-miterlimit="10" d="M314.513,202.831
				c0,81.334-65.935,147.271-147.269,147.271c-81.335,0-147.271-65.938-147.271-147.271c0-81.332,65.937-147.27,147.271-147.27
				C248.578,55.561,314.513,121.499,314.513,202.831z"/>
			<circle fill="#FFFFEA" stroke="#000000" stroke-width="3" stroke-miterlimit="10" cx="167.243" cy="202.831" r="136.618"/>
			<g>
				<g>
					
						<rect x="152.161" y="120.014" transform="matrix(0.707 0.7072 -0.7072 0.707 195.4541 -51.1832)" fill="none" stroke="#000000" stroke-width="3" stroke-miterlimit="10" width="14.682" height="180.593"/>
					
						<polygon fill="none" stroke="#000000" stroke-width="3" stroke-linecap="round" stroke-linejoin="round" stroke-miterlimit="10" points="
						244.023,125.678 236.202,138.583 228.381,151.491 223.295,146.405 218.209,141.321 231.117,133.497 					"/>
					
						<line fill="none" stroke="#000000" stroke-width="3" stroke-linecap="round" stroke-linejoin="round" stroke-miterlimit="10" x1="224.908" y1="137.637" x2="232.176" y2="144.905"/>
					
						<line fill="none" stroke="#000000" stroke-width="3" stroke-linecap="round" stroke-linejoin="round" stroke-miterlimit="10" x1="98.251" y1="262.219" x2="107.593" y2="271.565"/>
					
						<line fill="none" stroke="#000000" stroke-width="3" stroke-linecap="round" stroke-linejoin="round" stroke-miterlimit="10" x1="104.478" y1="265.336" x2="113.822" y2="255.991"/>
				</g>
				<g>
					<polygon fill="none" stroke="#000000" stroke-width="3" stroke-miterlimit="10" points="230.947,255.78 240.601,275.817 
						220.563,266.161 109.478,155.075 119.86,144.692 					"/>
					
						<polygon fill="none" stroke="#000000" stroke-width="3" stroke-linecap="round" stroke-linejoin="round" stroke-miterlimit="10" points="
						93.885,129.213 110.941,132.877 119.697,144.854 114.613,149.942 109.526,155.026 97.55,146.27 					"/>
					
						<line fill="none" stroke="#000000" stroke-width="3" stroke-linecap="round" stroke-linejoin="round" stroke-miterlimit="10" x1="113.112" y1="148.327" x2="107.92" y2="143.135"/>
					<path d="M104.749,136.838c0.787,0.791,0.787,2.061,0,2.846c-0.786,0.787-2.062,0.787-2.848,0c-0.79-0.785-0.79-2.061,0-2.846
						C102.687,136.051,103.96,136.051,104.749,136.838z"/>
				</g>
			</g>
		</g>
		<g>
			<text transform="matrix(1 0 0 1 112.4707 107.4985)" font-family="'Kreon-Bold'" font-size="24.4523" letter-spacing="2">FREEPIK</text>
			<text transform="matrix(1 0 0 1 114.666 306.1782)" font-family="'Kreon-Regular'" font-size="17.619" letter-spacing="1">FREE VECTOR</text>
			<text transform="matrix(1 0 0 1 130.0723 319.8813)" font-family="'Kreon-Light'" font-size="11.6939" letter-spacing="1">FOR EVERYONE</text>
			<g>
				<text transform="matrix(1 0 0 1 62.9199 204.8931)" font-family="'Kreon-Bold'" font-size="13.8201">FOR</text>
			</g>
			<text transform="matrix(1 0 0 1 240.4531 204.8931)" font-family="'Kreon-Bold'" font-size="13.8201">EVER</text>
		</g>
		<g>
			<line stroke="#000000" stroke-width="3" stroke-miterlimit="10" x1="237.094" y1="187.532" x2="275.094" y2="187.532"/>
		</g>
		<g>
			<line stroke="#000000" stroke-width="3" stroke-miterlimit="10" x1="237.094" y1="211.532" x2="275.094" y2="211.532"/>
		</g>
		<g>
			<line stroke="#000000" stroke-width="3" stroke-miterlimit="10" x1="57.094" y1="187.532" x2="95.094" y2="187.532"/>
		</g>
		<g>
			<line stroke="#000000" stroke-width="3" stroke-miterlimit="10" x1="57.094" y1="211.532" x2="95.094" y2="211.532"/>
		</g>
		<g>
			<path fill="none" stroke="#000000" stroke-width="3" stroke-linecap="round" stroke-miterlimit="10" d="M101.857,301.102
				c-30.877-20.584-51.593-55.367-52.604-95.279c-1.102-43.432,21.405-81.977,55.831-103.344"/>
			<path fill="none" stroke="#000000" stroke-width="3" stroke-linecap="round" stroke-miterlimit="10" d="M228.223,101.768
				c33.291,20.133,55.938,56.295,56.998,98.072c0.94,37.166-15.406,70.76-41.721,93.066"/>
		</g>
	</g>
</g>
</svg>
